<svg width="148" height="79" viewBox="0 0 148 79" fill="none" xmlns="http://www.w3.org/2000/svg">
<path d="M133.028 64.4062C132.857 64.4917 132.803 64.6784 132.692 64.8145C132.552 64.9895 132.416 65.1917 132.682 65.3881C132.735 65.427 132.754 65.4931 132.727 65.5495C132.591 65.8334 132.566 66.2009 132.173 66.2942C132.097 66.3117 132.013 66.3389 132.017 66.4245C132.044 66.9651 131.691 67.387 131.552 67.877C131.459 68.2095 131.232 68.5148 131.027 68.8045C130.74 69.2167 130.473 69.6387 130.244 70.0859C130.151 70.2687 130.016 70.4378 129.867 70.5817C129.493 70.9414 129.373 71.5034 128.896 71.7814C128.838 71.8145 128.801 71.8942 128.766 71.9603C128.507 72.4698 128.115 72.8664 127.728 73.2787C127.487 73.5353 127.277 73.8212 127.034 74.0837C126.569 74.5892 126.092 75.0714 125.509 75.4428C125.497 75.4506 125.482 75.4584 125.474 75.4701C125.147 76.0437 124.537 76.2751 124.043 76.6484C123.88 76.7709 123.677 76.8565 123.481 76.9148C122.779 77.1228 122.118 77.4339 121.443 77.7101C120.343 78.1612 119.234 78.2545 118.037 78.0017C116.032 77.5778 114.838 76.3237 114.074 74.5387C113.364 72.8801 113.16 71.1203 113.09 69.3392C113.059 68.5187 113.107 67.702 113.174 66.8873C113.331 64.8806 113.667 62.9031 114.224 60.9684C115.237 57.4431 116.615 54.0695 118.466 50.8981C119.437 49.2337 120.514 47.6392 121.745 46.1576C122.437 45.3234 123.152 44.5087 123.889 43.7095C125.146 42.3464 126.503 41.1 127.911 39.9042C130.133 38.0142 132.505 36.3381 135.124 35.0353C135.362 34.9167 135.49 34.7748 135.523 34.5045C135.719 32.8303 135.906 31.1562 135.914 29.4664C135.918 28.5078 135.822 27.5589 135.634 26.6217C135.542 26.1628 135.354 26.0462 134.901 26.1725C134.609 26.2542 134.368 26.4292 134.142 26.6314C133.754 26.9814 133.425 27.3898 133.059 27.7592C132.62 28.2025 132.28 28.7392 131.764 29.1145C131.644 29.202 131.591 29.3867 131.506 29.5248C131.302 29.8573 131.002 30.11 130.757 30.4095C130.281 30.9987 129.884 31.6559 129.33 32.175C128.815 32.6592 128.57 33.3281 128.097 33.8434C127.352 34.6562 126.73 35.5681 126.067 36.4489C125.558 37.1256 125.118 37.8509 124.601 38.5178C124.167 39.0778 123.677 39.5931 123.211 40.1259C123.034 40.3281 122.824 40.4273 122.538 40.3981C122.248 40.3689 121.961 40.4623 121.667 40.3067C121.523 40.2309 121.331 40.3942 121.187 40.4914C120.949 40.6509 120.695 40.6956 120.421 40.6723C119.87 40.6237 118.894 39.8284 118.737 39.2956C118.628 38.9339 118.602 38.5625 118.641 38.1892C118.789 36.7503 119.032 35.327 119.419 33.9309C119.744 32.7564 120.071 31.582 120.471 30.4289C120.823 29.4159 121.161 28.397 121.576 27.4073C121.904 26.6217 122.299 25.8673 122.863 25.2159C123.125 24.9125 123.394 24.617 123.851 24.5062C123.841 24.825 123.679 25.0428 123.487 25.2062C122.972 25.6437 122.626 26.1842 122.369 26.7987C122.151 27.3198 121.892 27.8253 121.684 28.3523C121.467 28.9006 121.307 29.4742 121.089 30.0225C120.691 31.0356 120.549 32.1148 120.242 33.1512C119.936 34.1778 119.773 35.2356 119.563 36.2837C119.509 36.5539 119.563 36.832 119.413 37.1198C119.649 37.0848 119.643 36.9662 119.651 36.8709C119.674 36.5578 119.726 36.2506 119.791 35.9434C119.915 35.3387 120.032 34.73 120.156 34.1253C120.174 34.0398 120.201 33.9445 120.255 33.8784C120.477 33.61 120.526 33.297 120.518 32.9664C120.516 32.8439 120.496 32.7312 120.656 32.6825C120.726 32.6612 120.761 32.5775 120.771 32.5017C120.804 32.2703 120.846 32.0525 120.971 31.8387C121.093 31.6267 121.198 31.3545 121.212 31.1367C121.249 30.5553 121.566 30.0887 121.719 29.5598C121.824 29.1923 121.951 28.8306 122.062 28.465C122.209 27.975 122.377 27.4987 122.626 27.0514C123.022 26.3359 123.46 25.6475 124.02 25.0467C124.16 24.897 124.333 24.792 124.554 24.7628C124.599 25.0156 124.376 25.142 124.405 25.3831C124.551 25.2995 124.683 25.2217 124.817 25.1459C124.91 25.0934 125.009 25.0448 125.097 25.1537C125.175 25.2489 125.155 25.35 125.097 25.4453C125.033 25.5464 124.972 25.6553 124.887 25.7331C124.477 26.1142 124.306 26.6198 124.117 27.1234C123.893 27.7223 123.621 28.3017 123.419 28.9064C123.24 29.447 123.071 29.9953 123.026 30.5748C123.621 28.885 124.053 27.1234 125.19 25.667C125.303 25.7584 125.28 25.8225 125.243 25.8653C124.671 26.4934 124.438 27.2848 124.177 28.0606C123.796 29.1903 123.431 30.3278 123.149 31.4867C122.907 32.4823 122.748 33.4992 122.54 34.5784C122.801 34.4617 122.814 34.2362 122.948 34.1214C123.096 33.995 123.226 33.857 123.347 33.7034C125.373 31.1017 127.452 28.5448 129.662 26.0987C130.545 25.1225 131.508 24.2339 132.624 23.5223C132.964 23.3045 133.326 23.1295 133.711 23.0012C134.16 22.8534 134.605 22.8456 135.074 22.9642C135.593 23.0964 136.122 23.1762 136.61 23.4212C137.749 23.9948 138.599 24.7978 138.976 26.0695C139.408 27.5259 139.626 29.0056 139.68 30.5184C139.711 31.3681 139.744 32.2159 139.69 33.0675C139.667 33.4234 139.686 33.4195 140.05 33.4759C140.186 33.4973 140.318 33.4778 140.45 33.472C142.55 33.3689 144.497 33.8959 146.309 34.9381C146.628 35.1209 146.976 35.2784 147.203 35.5914C147.281 35.7003 147.361 35.8112 147.415 35.9317C147.512 36.1514 147.45 36.3089 147.197 36.3614C147.161 36.3225 147.137 36.2525 147.063 36.2934C147.05 36.3012 147.04 36.3575 147.052 36.3673C147.108 36.4198 147.157 36.3789 147.207 36.3478C147.166 36.6103 146.989 36.6395 146.776 36.5967C146.542 36.5481 146.315 36.4878 146.074 36.4742C145.881 36.4625 145.696 36.412 145.502 36.482C145.426 36.5092 145.321 36.4937 145.241 36.4645C144.44 36.1748 143.624 36.2564 142.809 36.3712C141.92 36.4956 141.061 36.7425 140.211 37.0245C139.886 37.1334 139.713 37.322 139.686 37.6623C139.643 38.197 139.593 38.7298 139.542 39.2645C139.507 39.6281 139.464 39.9917 139.391 40.3514C139.391 39.4298 139.599 38.5217 139.593 37.5709C139.377 37.6175 139.394 37.7556 139.381 37.8587C139.297 38.5237 139.221 39.1906 139.14 39.8556C138.755 43.0075 138.276 46.1459 137.569 49.2453C137.032 51.5981 136.474 53.9451 135.801 56.2628C135.189 58.3667 134.516 60.4512 133.724 62.4948C133.549 62.9478 133.402 63.4203 133.112 63.8287C132.987 64.0056 133.081 64.2351 133.026 64.4334L133.038 64.4178L133.028 64.4062ZM135.784 53.9003C135.799 53.7895 135.803 53.6806 135.749 53.5678C135.684 53.6923 135.544 53.8187 135.793 53.877C135.408 55.3159 135.01 56.7489 134.553 58.1684C134.409 58.6176 134.201 59.0589 134.181 59.5451C134.076 59.6248 134.004 59.7162 134.061 59.9087C134.115 59.8076 134.154 59.7609 134.168 59.7064C134.181 59.652 134.172 59.5917 134.172 59.5334C134.294 59.4342 134.341 59.2923 134.391 59.1523C134.584 58.6195 134.784 58.0906 134.963 57.5539C135.85 54.8823 136.649 52.1873 137.125 49.4048C137.25 48.6737 137.397 47.9464 137.464 47.2017C137.423 47.2639 137.397 47.33 137.382 47.3981C137.098 48.662 136.83 49.9298 136.509 51.1839C136.276 52.09 136.071 53.0059 135.786 53.8984L135.784 53.9003ZM120.304 57.0484C120.271 57.0328 120.236 57.0192 120.203 57.0037C119.942 57.5851 119.666 58.1587 119.427 58.7478C119.186 59.3409 118.98 59.9456 118.787 60.5562C118.441 61.6587 118.081 62.7553 117.904 63.9064C117.727 65.0556 117.519 66.2009 117.479 67.3656C117.409 69.382 117.611 71.3478 118.509 73.2009C118.826 73.8542 119.336 74.2664 119.929 74.6184C120.001 74.6612 120.1 74.6709 120.187 74.6806C120.751 74.7487 121.237 74.5912 121.665 74.2062C122.878 73.1153 123.946 71.8903 124.889 70.5662C126.164 68.7773 127.214 66.8542 128.119 64.8495C129.223 62.3976 130.125 59.8717 130.913 57.3031C131.624 54.9795 132.289 52.6403 132.82 50.2681C133.497 47.2406 134.09 44.1956 134.576 41.1292C134.613 40.8939 134.689 40.6645 134.673 40.4214C134.66 40.2037 134.586 40.1473 134.389 40.2387C134.242 40.3067 134.106 40.402 133.969 40.4934C133.637 40.717 133.279 40.9173 132.984 41.1817C132.573 41.5512 132.099 41.8253 131.681 42.1831C131.199 42.5973 130.862 43.1573 130.296 43.4859C129.836 43.7542 129.554 44.2306 129.149 44.5767C128.877 44.81 128.587 45.057 128.367 45.3584C128.076 45.755 127.749 46.1206 127.411 46.4803C126.946 46.9742 126.442 47.4467 126.052 47.997C125.527 48.7378 124.926 49.4164 124.42 50.1728C124.059 50.7153 123.672 51.2481 123.322 51.7984C122.635 52.8795 122.003 53.9956 121.441 55.1487C120.926 56.2064 120.405 57.2642 119.981 58.3628C119.448 59.7395 118.966 61.1337 118.639 62.5764C118.628 62.6289 118.616 62.6951 118.505 62.6776C118.925 60.7428 119.551 58.8742 120.304 57.0464V57.0484ZM114.086 69.3548C114.115 69.6231 114.15 69.8876 114.169 70.1559C114.212 70.6887 114.375 71.2059 114.325 71.7503C114.307 71.9506 114.381 72.1606 114.424 72.3628C114.439 72.4367 114.5 72.4989 114.589 72.4601C114.651 72.4348 114.665 72.3784 114.647 72.3123C114.445 71.5734 114.498 70.8092 114.443 70.0587C114.352 68.7909 114.476 67.527 114.624 66.2689C114.712 65.5301 114.838 64.7951 114.939 64.0581C115.132 62.6678 115.592 61.3437 115.927 59.9884C116.228 58.7731 116.707 57.6142 117.14 56.4456C117.56 55.3159 118.062 54.2173 118.587 53.1303C118.622 53.0584 118.711 52.9864 118.634 52.8873C118.523 52.9281 118.484 53.0331 118.437 53.1226C118.173 53.6223 117.895 54.1181 117.657 54.6314C117.076 55.8876 116.506 57.1495 116.014 58.4464C115.9 58.7478 115.734 59.0317 115.647 59.3467C115.554 59.6889 115.451 60.0176 115.258 60.3306C115.13 60.5387 115.013 60.7992 115.064 61.0909C115.087 61.2289 115.06 61.402 114.994 61.5284C114.803 61.8939 114.846 62.3101 114.704 62.6892C114.614 62.9284 114.681 63.2259 114.416 63.3951C114.624 63.7159 114.377 64.0192 114.379 64.3342C114.379 64.5539 114.278 64.7231 114.138 64.9078C113.992 65.1003 114.264 65.3706 114.175 65.5962C114.091 65.8023 114.082 65.9909 114.115 66.1989C114.126 66.267 114.082 66.3409 114.076 66.4148C114.054 66.7162 113.858 66.9709 113.864 67.2859C113.874 67.8381 113.852 68.3903 113.852 68.9406C113.852 69.4014 113.893 69.8584 114.004 70.3095C114.113 69.9984 114.014 69.6737 114.082 69.3587L114.086 69.3548ZM129.381 64.5501C129.416 64.5617 129.449 64.5753 129.484 64.5889C130.779 62.1234 131.71 59.512 132.517 56.852C133.324 54.1901 133.923 51.4795 134.286 48.7164C134.127 49.3056 133.967 49.8967 133.791 50.552C133.736 50.4198 133.717 50.3673 133.693 50.3109C133.581 50.4392 133.565 50.5909 133.528 50.7309C133.339 51.4523 133.122 52.1659 132.976 52.8951C132.836 53.5892 132.447 54.2387 132.591 54.9834C132.264 56.3289 131.809 57.6356 131.385 58.952C131.171 59.617 130.913 60.2684 130.709 60.9373C130.469 61.7228 130.156 62.4792 129.861 63.2414C129.692 63.6751 129.538 64.1126 129.377 64.5481L129.381 64.5501ZM135.817 48.6231C135.665 49.1598 135.507 49.6945 135.299 50.2098C135.206 50.4412 135.257 50.6784 135.202 50.9039C135.066 51.4678 134.926 52.0317 134.784 52.5956C134.767 52.6676 134.739 52.7881 134.701 52.792C134.477 52.827 134.504 53.0098 134.461 53.1517C134.282 53.7506 134.094 54.3476 133.927 54.9503C133.738 55.6231 133.571 56.3017 133.39 56.9901C133.52 56.9784 133.491 56.817 133.621 56.8326C133.674 57.0212 133.512 57.1864 133.544 57.3751C134.137 56.4378 135.824 50.062 135.819 48.6231H135.817ZM118.103 60.7526C118.074 60.7526 118.044 60.7487 118.015 60.7467C117.98 61.1687 117.739 61.5187 117.622 61.9192C117.512 62.3062 117.37 62.6853 117.298 63.0839C117.226 63.4903 117.026 63.8831 117.164 64.3148C117.181 64.3673 117.164 64.4334 117.154 64.4917C117.002 65.4328 116.893 66.3759 116.864 67.3306C116.821 68.7228 116.948 70.0976 117.245 71.4567C117.267 71.5578 117.294 71.659 117.401 71.7212C117.453 71.6065 117.43 71.4898 117.412 71.3789C117.276 70.5992 117.224 69.8117 117.156 69.0262C117.057 67.8789 117.123 66.7337 117.218 65.5903C117.294 64.6589 117.621 63.7742 117.747 62.8526C117.844 62.1506 117.98 61.4526 118.097 60.7526H118.103ZM124.07 25.7934C123.882 25.8128 123.761 25.9392 123.699 26.1103C123.539 26.5614 123.291 26.9698 123.114 27.4131C122.612 28.6692 122.188 29.9467 121.832 31.2514C121.653 31.9087 121.568 32.5892 121.344 33.2348C121.313 33.3262 121.288 33.437 121.391 33.5925C121.498 33.2289 121.603 32.91 121.686 32.5853C121.996 31.3739 122.357 30.18 122.762 28.9939C123.117 27.9478 123.487 26.9134 124.078 25.9723C124.107 25.9256 124.134 25.8653 124.07 25.7895V25.7934ZM115.954 72.0615C115.995 72.0556 116.034 72.0498 116.073 72.042C116.026 71.5267 115.974 71.0114 115.933 70.4962C115.892 69.977 115.869 69.4578 115.834 68.9387C115.799 68.4195 115.783 67.9003 115.777 67.3792C115.771 66.8776 115.878 66.3759 115.795 65.8762C115.386 67.9548 115.511 70.0159 115.954 72.0615V72.0615ZM115.425 68.6664C115.53 68.0501 115.521 67.1789 115.392 66.7395C115.404 67.4239 115.237 68.0073 115.425 68.6664ZM116.384 62.0184C116.285 62.3937 116.026 62.7359 116.147 63.2589C116.374 62.8039 116.351 62.4034 116.384 62.0184ZM115.907 64.2137C116.226 63.9239 116.135 63.6459 116.071 63.3698C115.991 63.6206 115.83 63.8539 115.907 64.2137ZM131.654 65.112C131.683 65.3084 131.749 65.4931 131.729 65.7128C131.924 65.5806 131.899 65.3803 131.654 65.112ZM132.943 62.9342C132.939 62.8603 132.929 62.802 132.857 62.7903C132.811 62.7826 132.772 62.8059 132.754 62.8506C132.706 62.9848 132.589 63.0956 132.602 63.2512C132.608 63.3095 132.643 63.3601 132.706 63.3776C132.776 63.397 132.812 63.3542 132.832 63.2939C132.871 63.1695 132.908 63.0451 132.941 62.9342H132.943ZM118.371 60.0137C118.443 59.8445 118.608 59.722 118.54 59.5081C118.525 59.4595 118.461 59.4323 118.435 59.4673C118.334 59.6073 118.225 59.7512 118.278 59.9437C118.284 59.9651 118.321 59.9767 118.371 60.0137V60.0137ZM133.598 60.8517C133.816 60.6942 133.899 60.5231 133.849 60.3364C133.757 60.5076 133.579 60.5873 133.598 60.8517ZM122.904 46.4123C122.886 46.3403 122.837 46.2859 122.783 46.2956C122.699 46.3112 122.606 46.385 122.61 46.4589C122.614 46.527 122.684 46.6495 122.781 46.6203C122.847 46.6009 122.9 46.4978 122.906 46.4123H122.904ZM120.877 36.1903C120.854 36.3187 120.697 36.4412 120.876 36.6025C120.955 36.4567 120.949 36.3264 120.877 36.1903ZM122.684 31.6617C122.83 31.5217 122.894 31.4245 122.837 31.2456C122.723 31.3409 122.684 31.442 122.684 31.6617ZM121.15 34.5512C121.095 34.7203 121.008 34.8253 121.122 34.9712C121.231 34.8467 121.317 34.7495 121.15 34.5512ZM133.124 62.1487C133.229 62.0145 133.248 61.9095 133.246 61.7248C133.129 61.8764 133.038 61.962 133.124 62.1487ZM132.995 62.5628C133.044 62.557 133.075 62.5317 133.075 62.4831C133.075 62.4345 133.048 62.3995 132.997 62.4034C132.952 62.4073 132.917 62.4403 132.916 62.487C132.912 62.5376 132.947 62.5609 132.995 62.5648V62.5628ZM120.99 35.397C120.979 35.4048 120.959 35.4087 120.953 35.4184C120.916 35.4825 120.903 35.5545 120.926 35.6264C120.934 35.6478 120.973 35.6809 120.986 35.677C121.082 35.6498 121.066 35.572 121.054 35.5C121.047 35.4573 121.039 35.4145 120.988 35.3989L120.99 35.397ZM116.547 61.4623C116.495 61.472 116.487 61.5148 116.483 61.5537C116.479 61.5945 116.479 61.6489 116.53 61.6489C116.555 61.6489 116.588 61.5945 116.602 61.5595C116.615 61.5187 116.598 61.4778 116.549 61.4623H116.547ZM114.614 72.6895C114.556 72.7128 114.533 72.7517 114.548 72.7984C114.566 72.8509 114.593 72.9209 114.667 72.8801C114.688 72.8684 114.692 72.8023 114.686 72.7634C114.682 72.7226 114.657 72.6817 114.612 72.6914L114.614 72.6895ZM115.787 64.8281C115.818 64.7873 115.839 64.7717 115.845 64.7503C115.857 64.7095 115.878 64.6473 115.861 64.6317C115.812 64.587 115.795 64.6434 115.789 64.6784C115.781 64.7173 115.789 64.7581 115.789 64.8281H115.787ZM132.173 64.5345C132.109 64.5326 132.103 64.5792 132.089 64.6201C132.077 64.6589 132.054 64.7095 132.122 64.7173C132.171 64.7231 132.202 64.6901 132.21 64.6434C132.217 64.5987 132.212 64.5578 132.173 64.5345ZM118.799 58.8023C118.799 58.7751 118.807 58.7381 118.791 58.7206C118.75 58.672 118.713 58.6953 118.698 58.7439C118.69 58.7653 118.704 58.8062 118.721 58.8178C118.737 58.8276 118.772 58.8101 118.797 58.8023H118.799ZM118.929 52.3545C118.951 52.3428 118.982 52.337 118.993 52.3195C119.007 52.3001 119.017 52.2534 119.005 52.2437C118.962 52.2087 118.925 52.2359 118.912 52.2787C118.904 52.3001 118.921 52.3292 118.927 52.3545H118.929ZM119.981 36.1903C119.966 36.1612 119.942 36.1534 119.917 36.1748C119.907 36.1825 119.897 36.2039 119.901 36.2098C119.915 36.2273 119.934 36.2409 119.952 36.2584C119.962 36.237 119.971 36.2137 119.983 36.1923L119.981 36.1903Z" fill="white"/>
<path d="M46.1621 27.7886C45.989 27.6991 46.0162 27.4599 45.8296 27.3822C45.7382 27.3433 45.8393 27.2674 45.8821 27.2111C45.989 27.0749 45.9968 26.933 45.8548 26.8202C45.7246 26.7172 45.4698 26.7677 45.3765 26.9097C45.3376 26.9699 45.3259 27.0497 45.2948 27.1158C45.2462 27.2208 45.1646 27.2888 45.0459 27.2441C44.9176 27.1955 44.9234 27.0866 44.9759 26.9836C45.0382 26.8591 45.0421 26.7502 44.8982 26.6861C44.6454 26.5733 44.5618 26.3769 44.5715 26.1105C44.5773 25.9297 44.4626 25.9199 44.3343 26.0094C44.0309 26.2194 43.8793 26.5558 43.6654 26.8397C43.2279 27.423 42.8487 28.0491 42.5026 28.6908C42.2129 29.2255 41.9445 29.7719 41.6723 30.3163C41.6218 30.4155 41.5907 30.5244 41.4546 30.4524C41.3418 30.3922 41.3282 30.2813 41.3943 30.1822C41.7132 29.7155 41.8629 29.1613 42.1837 28.6927C42.4851 28.2513 42.6776 27.7419 42.9945 27.3083C43.4145 26.7327 43.8365 26.1572 44.2565 25.5816C44.2993 25.5213 44.3557 25.4688 44.3907 25.4047C44.4082 25.3736 44.4043 25.3152 44.3868 25.2822C44.3634 25.2394 44.309 25.2374 44.2701 25.2666C44.1748 25.3386 44.0737 25.4047 43.9959 25.4941C43.8093 25.708 43.6343 25.9297 43.3854 26.0774C43.2182 26.1766 43.1968 26.3769 43.1073 26.5266C42.7437 27.1391 42.4112 27.7652 41.9718 28.333C41.7521 28.6169 41.6159 28.9747 41.4818 29.3169C41.3573 29.6299 41.334 29.978 40.9976 30.1841C40.8382 30.2813 40.9412 30.6158 41.1298 30.6838C41.5518 30.8355 41.5343 30.8316 41.4098 31.2302C41.1026 32.2277 40.8168 33.2311 40.5115 34.2286C40.2937 34.9422 40.1634 35.6752 40.0137 36.4044C40.0098 36.42 40.0118 36.4355 40.0059 36.4472C39.7007 37.1199 39.7843 37.8452 39.7298 38.553C39.7143 38.7455 39.7337 38.9419 39.6579 39.1266C39.6229 39.2122 39.5995 39.3133 39.6657 39.3833C39.9223 39.6516 39.8426 40.0036 39.899 40.3186C39.9826 40.7794 40.1207 40.9155 40.5854 40.828C41.0559 40.7386 41.5109 40.5927 41.9465 40.3925C42.2596 40.2505 42.594 40.1552 42.8993 40.0133C43.3679 39.7936 43.8696 39.6438 44.2973 39.3327C44.5112 39.1752 44.7582 39.0586 44.9993 38.94C45.8801 38.5044 46.7201 37.9969 47.564 37.4952C47.8246 37.3397 47.9821 37.1375 47.9821 36.8555C47.9782 36.068 48.2018 35.3233 48.4176 34.5863C48.5673 34.073 48.7171 33.5344 49.0807 33.1047C49.1312 33.0444 49.1176 32.9647 49.1079 32.8908C49.0748 32.5991 49.139 32.3249 49.2965 32.0799C49.4054 31.9108 49.4307 31.7183 49.4929 31.5355C49.7593 30.7713 50.1462 30.0733 50.5798 29.3888C50.8404 28.9786 51.0815 28.5469 51.3109 28.1133C51.5151 27.7283 51.7893 27.3958 52.0498 27.0516C52.3532 26.6511 52.7032 26.2913 53.0259 25.9122C53.5821 25.2588 54.2237 24.6774 54.9568 24.2069C55.6276 23.7772 56.3548 23.4952 57.1112 23.2852C57.1696 23.3105 57.1773 23.3494 57.1482 23.3922C57.0937 23.4719 56.9596 23.5458 57.0665 23.6508C57.1735 23.7558 57.2532 23.6333 57.3232 23.5633C57.4826 23.4097 57.6518 23.4136 57.7957 23.5594C58.0037 23.7694 58.2623 23.7694 58.5054 23.7208C58.9662 23.6294 59.3551 23.7869 59.7284 24.0124C59.9054 24.1194 60.0571 24.2672 60.2282 24.3838C60.5568 24.6094 60.7415 24.9088 60.7357 25.3152C60.7357 25.3872 60.7357 25.4649 60.8193 25.5408C61.006 25.4766 61.0954 25.3074 61.2043 25.1538C61.2821 25.043 61.3696 24.9108 61.5232 24.9613C61.7021 25.0197 61.7585 25.183 61.7429 25.3599C61.7196 25.5952 61.6457 25.8266 61.7487 26.1027C61.8907 25.9297 62.019 25.7741 62.1473 25.6186C62.3534 25.3638 62.3923 25.3852 62.5712 25.6788C62.7385 25.9549 62.7696 26.2544 62.7871 26.5461C62.9426 26.6024 62.966 26.4936 63.0126 26.4255C63.0787 26.3302 63.1351 26.1824 63.2771 26.2447C63.4112 26.303 63.3471 26.4566 63.3412 26.5694C63.3354 26.688 63.3023 26.8066 63.3062 26.9252C63.3101 27.0788 63.1954 27.248 63.3587 27.3861C63.3821 27.4055 63.3898 27.4911 63.3704 27.5105C63.1701 27.7069 63.2829 28.0044 63.1312 28.2144C63.0496 28.3291 63.0457 28.4633 63.0243 28.5974C62.9465 29.068 62.8182 29.523 62.6004 29.9488C62.5382 30.0694 62.5012 30.1899 62.4993 30.3299C62.4915 30.8161 62.3204 31.2613 62.0987 31.6872C62.0657 31.7513 61.9743 31.7922 61.984 31.8719C62.0968 32.8577 61.671 33.7561 61.5348 34.7011C61.496 34.9655 61.496 35.2358 61.4746 35.5041C61.4473 35.8638 61.2898 36.1944 61.2237 36.5386C61.1634 36.8574 61.4318 37.1783 61.389 37.5361C61.3657 37.7266 61.3715 37.923 61.3812 38.1175C61.3909 38.3352 61.4668 38.3955 61.6651 38.3236C61.914 38.2341 62.1551 38.135 62.3787 37.9677C62.8571 37.6119 63.3198 37.2347 63.7787 36.8536C64.3173 36.4083 64.7898 35.8891 65.2468 35.3563C65.3071 35.2863 65.3518 35.2047 65.3421 35.1113C65.309 34.7672 65.3965 34.4152 65.3323 34.0847C65.204 33.4197 65.4004 32.8072 65.5773 32.1986C65.8048 31.413 66.1587 30.6683 66.4348 29.9002C66.8918 28.6286 67.6326 27.5358 68.4512 26.4916C69.0307 25.7547 69.7268 25.1227 70.4715 24.5374C71.1579 23.9988 71.8851 23.5399 72.6648 23.1705C73.1587 22.9352 73.6662 22.7136 74.2107 22.593C74.654 22.4938 75.0896 22.4199 75.5115 22.6591C75.5815 22.6999 75.6554 22.6922 75.7293 22.6747C75.8343 22.6494 75.949 22.6397 76.0365 22.6902C76.5596 22.9838 77.1798 23.0111 77.7029 23.3047C78.0782 23.5147 78.4418 23.7227 78.7082 24.0902C78.8287 24.2574 79.0446 24.3624 79.1904 24.5374C79.2935 24.6619 79.4451 24.623 79.5365 24.4966C79.6221 24.378 79.6862 24.2399 79.7465 24.1038C80.2249 23.0461 80.6254 21.9591 81.0162 20.8663C81.4965 19.5169 81.9399 18.1558 82.3579 16.7888C82.9024 15.0038 83.3068 13.1838 83.5849 11.3366C83.8415 9.63716 83.9562 7.928 83.9524 6.21299C83.9504 5.36716 83.8882 4.51744 83.5829 3.70272C83.4449 3.33133 83.1999 3.07077 82.9121 2.82966C82.8032 2.73827 82.671 2.73049 82.531 2.75188C82.2082 2.80244 81.8796 2.79272 81.5529 2.80049C81.2126 2.80827 80.8665 2.90355 80.5554 3.00661C79.8807 3.23022 79.1865 3.40327 78.5487 3.74744C77.7029 4.20049 77.0224 4.83827 76.3924 5.53827C75.6807 6.32966 75.181 7.27272 74.621 8.17105C74.5276 8.32077 74.4576 8.488 74.2749 8.59883C74.1582 8.488 74.1096 8.31105 73.8685 8.34411C73.5807 8.38494 73.5437 8.30327 73.5787 8.00188C73.5885 7.91633 73.6526 7.83272 73.5651 7.73161C73.3629 7.753 73.2501 7.92605 73.0985 8.03494C73.0148 8.09522 72.9332 8.16327 72.8476 8.22161C72.7971 8.25661 72.7348 8.27022 72.6785 8.23522C72.6046 8.18855 72.5968 8.11077 72.624 8.03883C72.6707 7.91438 72.7251 7.78994 72.7835 7.66938C72.8768 7.46911 72.9935 7.27661 72.9993 7.01022C72.7815 7.05883 72.6746 7.23188 72.5229 7.33299C72.4412 7.38938 72.3654 7.50411 72.2526 7.43216C72.1398 7.35827 72.1904 7.24161 72.2371 7.15022C72.9565 5.72688 73.5846 4.25299 74.6637 3.04161C76.1415 1.38105 77.9712 0.371882 80.1665 0.0588265C80.7965 -0.030618 81.4401 -0.046174 82.0604 0.216326C82.3287 0.331048 82.6418 0.323271 82.9101 0.472993C83.5946 0.854104 84.3335 1.14577 84.8624 1.77383C85.0568 2.00522 85.3582 2.1316 85.5915 2.3416C86.3537 3.02799 86.8865 3.84855 87.1607 4.83827C87.2229 5.06772 87.2987 5.29327 87.3824 5.51688C87.4951 5.81633 87.571 6.11383 87.4757 6.43272C87.4601 6.48716 87.4543 6.56494 87.4796 6.60772C87.6954 6.94411 87.6099 7.32911 87.6779 7.68688C87.8024 8.34411 87.7596 8.9955 87.7285 9.64883C87.6779 10.6444 87.7304 11.6438 87.5788 12.6355C87.5224 12.9933 87.499 13.3491 87.1393 13.5961C87.3649 13.7749 87.3707 13.9713 87.3415 14.2124C87.2579 14.9086 87.1043 15.5852 86.9138 16.2619C86.7874 16.7033 86.7018 17.1602 86.6104 17.6113C86.3635 18.813 85.9901 19.9758 85.6051 21.1347C85.2104 22.3208 84.8079 23.5088 84.3315 24.6638C83.8357 25.8713 83.334 27.0769 82.7876 28.2669C82.321 29.2799 81.8426 30.2872 81.374 31.2983C81.1874 31.7008 81.0279 32.1247 80.6876 32.4377C80.6468 32.4747 80.6157 32.5349 80.6021 32.5894C80.4582 33.1844 80.0596 33.6433 79.7757 34.1624C79.381 34.8838 78.8851 35.5372 78.434 36.2197C78.0335 36.8244 77.5551 37.3863 77.0515 37.9094C76.8299 38.1408 76.7132 38.4208 76.5226 38.6619C76.2018 39.0663 75.811 39.3327 75.3346 39.4883C75.1148 39.5602 74.9224 39.6633 74.759 39.8208C74.3935 40.1727 73.9735 40.3477 73.4601 40.2719C73.359 40.2563 73.2462 40.2583 73.149 40.2855C72.8418 40.3711 72.5598 40.3205 72.2857 40.1688C72.066 40.0463 71.856 40.023 71.6071 40.13C71.331 40.2486 71.0296 40.2505 70.7282 40.1727C70.4132 40.093 70.104 39.9783 69.7676 39.9958C69.6704 40.0016 69.5537 39.9647 69.4701 39.9102C68.9996 39.6069 68.4318 39.4611 68.0623 38.9847C67.8835 38.7552 67.5879 38.6386 67.3293 38.4888C67.1135 38.3663 67.0065 38.4305 66.8782 38.5783C66.2871 39.2511 65.626 39.85 64.9804 40.4683C64.6693 40.7677 64.3796 41.0827 64.0179 41.3258C63.6446 41.5766 63.2168 41.7127 62.8143 41.8955C62.4235 42.0725 61.986 41.9675 61.5873 41.8352C61.1148 41.6797 60.656 41.5688 60.1446 41.6505C59.6137 41.7361 59.1315 41.4852 58.7465 41.1644C58.1982 40.7075 57.7568 40.1338 57.3076 39.5758C57.2551 39.5097 57.2318 39.4202 57.1987 39.3444C57.0432 39.3075 56.9751 39.4261 56.8837 39.4922C56.8487 39.5194 56.8157 39.5505 56.7865 39.5855C56.6387 39.7741 56.4268 39.8227 56.2109 39.8927C56.0029 39.9608 56.1254 40.2738 55.9154 40.4041C55.7346 40.515 55.544 40.5811 55.3573 40.6666C55.1512 40.7619 55.2484 41.0458 55.089 41.2072C54.7837 41.5144 54.5601 41.5863 54.1926 41.3647C53.9282 41.2072 53.7376 41.2325 53.5198 41.4444C53.0901 41.8625 52.5865 41.8411 52.0809 41.6058C51.7757 41.4638 51.4704 41.493 51.1651 41.5494C50.6304 41.6486 49.9751 41.2908 49.8157 40.7852C49.7632 40.6141 49.7748 40.478 49.4851 40.5422C49.2809 40.5869 49.0223 40.3827 48.8357 40.2097C48.7326 40.1144 48.6626 39.8811 48.5109 39.9725C48.3359 40.0794 48.5712 40.2213 48.5848 40.3555C48.5848 40.3672 48.5751 40.3808 48.5712 40.3963C48.5012 40.4469 48.4293 40.4197 48.3573 40.4002C48.2134 40.3575 48.1357 40.408 48.0929 40.5538C48.0657 40.653 48.0034 40.7405 47.9626 40.8377C47.9257 40.9213 47.879 41.0341 47.7993 41.038C47.4551 41.0555 47.2723 41.3102 47.0312 41.4969C46.8251 41.6563 46.5568 41.7225 46.2709 41.703C46.1212 41.6933 45.8587 41.6855 46.0221 41.9986C46.0979 42.1425 45.9676 42.2338 45.8684 42.2786C45.394 42.4925 45.0265 42.9047 44.4957 43.0136C44.3907 43.035 44.3051 43.0991 44.2293 43.1711C44.0251 43.3577 43.7879 43.455 43.5118 43.5055C43.1618 43.5677 42.8662 43.8011 42.5065 43.8633C41.9582 43.9566 41.4293 43.9644 40.8829 43.7952C40.4609 43.665 40.004 43.6455 39.5607 43.5911C39.3818 43.5697 39.2068 43.56 39.0493 43.4569C38.9773 43.4102 38.8859 43.3655 38.8023 43.3636C38.219 43.3597 37.7776 43.0466 37.3907 42.6752C36.294 41.6233 35.5318 40.3827 35.3976 38.8291C35.314 37.8588 35.347 36.8905 35.5162 35.9319C35.6854 34.9772 35.944 34.0458 36.2201 33.1144C36.5468 32.0119 36.9123 30.9269 37.3304 29.8594C37.9759 28.2144 38.8257 26.6763 39.9145 25.2763C40.632 24.3527 41.4332 23.5147 42.4034 22.8516C42.6504 22.6824 42.9129 22.5463 43.2007 22.453C43.6168 22.3188 44.0134 22.3033 44.414 22.5152C44.5812 22.6027 44.7873 22.6202 44.9662 22.6902C45.6779 22.9683 46.3954 23.2599 46.8076 23.9561C47.1071 24.4655 47.1557 25.0216 46.9321 25.5874C46.8834 25.7099 46.829 25.8013 46.6793 25.7877C46.5062 25.7722 46.4148 25.8286 46.4868 26.0211C46.4965 26.0483 46.514 26.0852 46.5043 26.1066C46.2826 26.6083 46.2651 27.1411 46.2632 27.6777C46.2632 27.7088 46.2107 27.7399 46.1718 27.7827V27.7866L46.1621 27.7886ZM76.1707 25.6458C76.1376 25.5116 76.231 25.4844 76.264 25.4222C76.3185 25.3211 76.2815 25.2452 76.1824 25.2102C75.9762 25.1344 75.774 25.2686 75.7857 25.4902C75.7974 25.7313 75.6923 25.8674 75.4668 25.8908C75.3054 25.9063 75.181 25.9569 75.0935 26.093C74.9612 26.2972 74.7648 26.4313 74.5743 26.5772C74.2904 26.793 73.9851 26.9855 73.746 27.2558C73.1724 27.9033 72.6337 28.5761 72.1573 29.2974C71.6362 30.0849 71.2668 30.9424 70.9848 31.8427C70.8507 32.2686 70.7437 32.708 70.5648 33.1105C70.3801 33.5227 70.2323 33.9155 70.2304 34.3763C70.2304 34.7438 70.2596 35.1269 70.0535 35.4672C70.0204 35.5216 70.0204 35.5877 70.0787 35.6247C70.3432 35.7919 70.4637 36.0272 70.4462 36.3402C70.4423 36.418 70.4968 36.4822 70.5648 36.5191C70.6893 36.5852 70.7554 36.7019 70.8371 36.8088C71.0412 37.083 71.2318 37.1238 71.5273 36.9352C71.7898 36.7661 72.0485 36.5833 72.2837 36.3811C73.4076 35.4127 74.3585 34.2966 75.1499 33.0405C75.4979 32.4863 75.9004 31.9594 76.2135 31.3916C76.8085 30.3105 77.4112 29.2313 77.9207 28.1055C78.0354 27.8508 78.2182 27.6174 78.2357 27.3238C78.2493 27.0963 78.2921 26.8805 78.4282 26.6919C78.4826 26.6161 78.5312 26.5266 78.4574 26.4488C78.2707 26.2486 78.3174 26.0444 78.4224 25.8305C78.4593 25.7547 78.4399 25.6808 78.3737 25.6302C78.3096 25.5816 78.2337 25.5991 78.1618 25.6283C78.0412 25.6769 77.9635 25.7605 77.946 25.8908C77.9207 26.0677 77.9032 26.2466 77.8779 26.4236C77.8624 26.5402 77.8585 26.6647 77.7768 26.7619C77.7282 26.8202 77.6718 26.8844 77.5921 26.8533C77.5454 26.8338 77.491 26.7755 77.4812 26.7249C77.4307 26.478 77.3743 26.2349 77.4229 25.9744C77.4657 25.7449 77.3957 25.7158 77.1468 25.8266C77.106 25.8441 77.071 25.8674 77.034 25.8363C76.9368 25.7333 77.1721 25.5661 76.9601 25.4902C76.8299 25.4455 76.7035 25.4202 76.5693 25.4844C76.4487 25.5408 76.3243 25.5894 76.1726 25.6536V25.6497L76.1707 25.6458ZM57.2493 25.7547C57.1871 25.6983 57.1229 25.7002 57.0743 25.7333C56.6796 25.9977 56.3004 26.2855 56.034 26.6861C55.8959 26.8922 55.8259 27.1566 55.5012 27.1547C55.4196 27.1547 55.3826 27.2402 55.3748 27.3161C55.3612 27.4774 55.2465 27.5766 55.1551 27.6952C55.0287 27.8605 54.8946 28.0258 54.7993 28.2086C54.4668 28.8522 54.2198 29.5463 53.6229 30.0188C53.5898 30.0441 53.5529 30.0927 53.5548 30.1297C53.5723 30.6061 52.9812 30.8686 53.1154 31.3877C53.129 31.4402 53.0648 31.5394 53.0104 31.5783C52.7051 31.7922 52.709 32.1694 52.5457 32.4572C52.3259 32.848 52.3687 32.8713 51.9118 32.8538C51.6123 32.8422 51.5987 32.8033 51.6532 32.5097C51.7076 32.2219 51.9215 32.0158 52.0051 31.7436C52.1548 31.2575 52.3746 30.8024 52.6915 30.3999C52.7459 30.3319 52.8062 30.2522 52.8198 30.1705C52.9073 29.6688 53.2476 29.2916 53.4809 28.8677C53.7784 28.3252 54.179 27.8352 54.4959 27.2986C54.5757 27.1624 54.844 27.0088 54.6632 26.8611C54.5212 26.7444 54.3773 27.003 54.2393 27.1061C54.2159 27.1236 54.1984 27.1508 54.1809 27.1741C53.7843 27.7069 53.4382 28.2727 53.0862 28.8327C52.9287 29.0836 52.8179 29.3694 52.6546 29.6086C52.4076 29.9702 52.2112 30.3474 52.0615 30.7538C52.0246 30.853 51.9993 30.9658 51.8962 31.0086C51.6862 31.0941 51.6784 31.2749 51.6648 31.4538C51.6357 31.8311 51.5521 32.1888 51.3187 32.5C51.2837 32.5466 51.2682 32.6069 51.2487 32.6633C51.0737 33.1591 51.0776 33.7288 50.6576 34.1274C50.6382 34.1449 50.6246 34.1858 50.6304 34.2091C50.7004 34.5455 50.4904 34.8313 50.4573 35.1502C50.4496 35.228 50.4359 35.3019 50.5293 35.333C50.6148 35.3622 50.679 35.3155 50.7101 35.2436C50.819 34.9986 50.9823 34.7574 51.0096 34.5027C51.0562 34.0866 51.2584 33.8941 51.6804 33.8552C51.4179 33.7794 51.4101 33.5597 51.3479 33.3827C51.2993 33.2466 51.3576 33.1513 51.5034 33.1163C51.7523 33.06 51.9934 33.1708 52.1821 33.2661C52.3415 33.3458 52.1373 33.5772 52.1101 33.7444C52.1023 33.7872 52.0732 33.8261 52.0596 33.8688C52.0362 33.9388 52.0032 34.0244 52.0771 34.0749C52.1704 34.1391 52.2443 34.0613 52.3123 34.0088C52.4271 33.9174 52.4543 33.7852 52.4737 33.6511C52.5009 33.4586 52.5496 33.2738 52.6371 33.0969C52.7693 32.8324 52.9015 32.5661 53.0046 32.2841C53.1309 31.938 53.3137 31.6113 53.4537 31.2691C53.5412 31.0533 53.7668 30.9347 53.8329 30.7227C54.0234 30.118 54.3968 29.6144 54.7059 29.0758C54.9121 28.7141 55.1726 28.3836 55.4098 28.0394C55.4546 27.9752 55.5207 27.9305 55.5965 27.9869C55.6509 28.0297 55.6354 28.0938 55.6082 28.1502C55.5887 28.1891 55.5654 28.228 55.5382 28.2649C55.1396 28.7841 54.7876 29.3344 54.4746 29.908C54.3112 30.2074 54.074 30.4855 53.9651 30.7869C53.724 31.4558 53.3021 32.043 53.1329 32.7469C52.9832 33.3652 52.7304 33.9622 52.5243 34.5669C52.4776 34.703 52.4854 34.81 52.6662 34.8061C52.8568 34.8022 52.8898 34.913 52.8723 35.0686C52.8607 35.1677 52.7946 35.2688 52.8801 35.3661C53.0123 35.4166 53.1076 35.3155 53.2184 35.2902C53.5296 35.2202 53.6112 35.2961 53.5471 35.5994C53.5023 35.8094 53.4071 35.9922 53.269 36.1536C53.1621 36.278 53.0512 36.4005 52.9462 36.525C52.9171 36.558 52.9015 36.6008 52.9326 36.6572C53.0123 36.7233 53.1271 36.5638 53.2223 36.7038C53.1621 36.8711 53.0046 36.9644 52.8684 37.0713C52.5087 37.3513 52.3162 37.7694 52.009 38.0922C51.9351 38.17 51.9293 38.2905 51.9993 38.3838C52.0848 38.5005 52.1879 38.4363 52.2754 38.3838C52.4154 38.2983 52.5593 38.2186 52.6857 38.1136C53.2729 37.6294 53.8504 37.1277 54.3229 36.5308C54.5368 36.2605 54.8265 36.068 55.0132 35.7822C55.2251 35.4594 55.4332 35.1366 55.7209 34.8722C55.8901 34.7166 56.0107 34.5163 56.0729 34.3083C56.1565 34.0322 56.3004 33.793 56.4326 33.5422C56.5921 33.2388 56.7457 32.9336 56.8934 32.6224C57.1987 31.9769 57.4807 31.3216 57.749 30.6586C57.9707 30.1083 58.1885 29.5541 58.3537 28.9902C58.6026 28.1483 58.9293 27.3277 59.0829 26.4566C59.114 26.2836 59.1957 26.1513 58.9682 26.0658C58.8923 26.0386 58.8612 25.9413 58.9235 25.8791C59.1451 25.6536 59.009 25.5777 58.7893 25.5427C58.6279 25.5174 58.5929 25.3794 58.5112 25.2783C58.2973 25.0138 58.0504 25.0469 57.8987 25.3599C57.8618 25.4377 57.8093 25.4708 57.7373 25.4922C57.6537 25.5174 57.6343 25.5661 57.6265 25.6555C57.5993 26.0463 57.3679 26.2894 56.8643 26.4586C56.8993 26.1533 57.2882 26.0522 57.2571 25.7508V25.7547H57.2493ZM83.3885 16.9502C83.3574 16.9444 83.3282 16.9405 83.2971 16.9347C83.2757 16.9502 83.2407 16.9619 83.2329 16.9833C82.9529 17.7669 82.6612 18.5486 82.4026 19.3399C81.901 20.8683 81.2982 22.3558 80.711 23.8511C80.3804 24.6949 79.9429 25.4883 79.6104 26.3302C79.0893 27.6563 78.3932 28.9047 77.7496 30.1744C77.4035 30.8569 77.1293 31.5977 76.5576 32.1519C76.4876 32.2199 76.441 32.3269 76.4137 32.4261C76.3535 32.6283 76.2446 32.8033 76.1512 32.988C76.0035 33.2836 75.7974 33.5363 75.6224 33.8105C75.4532 34.0769 75.2743 34.3258 74.9729 34.4541C74.8796 34.4949 74.8232 34.5475 74.8523 34.6563C74.8776 34.7555 74.8212 34.8294 74.7726 34.9033C74.5121 35.2805 74.2515 35.6558 73.9851 36.0272C73.8198 36.2566 73.641 36.4763 73.4698 36.7019C73.4135 36.7758 73.3629 36.8652 73.4679 36.9294C73.5573 36.9858 73.641 36.9372 73.6974 36.8555C73.7421 36.7952 73.781 36.7311 73.814 36.665C73.8704 36.5541 73.956 36.4744 74.0629 36.4141C74.5432 36.1516 74.9087 35.7647 75.2393 35.3388C75.4746 35.0355 75.7701 34.7769 75.949 34.4269C75.9976 34.3336 76.0929 34.2791 76.1882 34.2324C76.2387 34.2072 76.3204 34.1644 76.3204 34.1274C76.3204 33.7308 76.6121 33.4819 76.8007 33.1883C77.2946 32.4222 77.6796 31.5958 78.1637 30.8277C78.7607 29.8808 79.2215 28.8638 79.6804 27.8566C80.0771 26.9874 80.4737 26.1086 80.8412 25.2219C81.0551 24.7047 81.2262 24.1699 81.4674 23.6586C81.8426 22.8633 82.0721 22.0077 82.3404 21.1697C82.3715 21.0705 82.3754 20.9519 82.4337 20.8722C82.7293 20.4677 82.7079 19.9758 82.8226 19.5208C82.8518 19.4061 82.8207 19.2602 82.9062 19.1786C83.1649 18.9374 83.1901 18.6419 83.161 18.3211C83.1532 18.2219 83.1726 18.1052 83.2193 18.0177C83.406 17.6716 83.2562 17.2924 83.3846 16.9444L83.3885 16.9502ZM48.8843 36.525C49.0612 36.5308 49.1487 36.3636 49.2732 36.2702C49.664 35.9747 49.6601 35.8638 49.3101 35.51C49.2071 35.405 49.0904 35.2999 49.3665 35.2572C49.524 35.2338 49.4676 35.1055 49.4229 35.0102C49.3509 34.8624 49.3626 34.7419 49.5337 34.6913C49.7904 34.6155 49.8176 34.4211 49.8234 34.2013C49.8293 34.0244 49.8215 33.828 49.9537 33.6938C50.1015 33.5461 50.1696 33.3652 50.1851 33.1747C50.2123 32.8169 50.3212 32.5058 50.5759 32.2491C50.6129 32.2122 50.6246 32.1402 50.6323 32.0819C50.6557 31.8661 50.7879 31.7008 50.8754 31.5122C50.9707 31.308 51.1068 31.135 51.1923 30.9172C51.4276 30.3163 51.7679 29.7563 52.0673 29.1788C52.4037 28.5294 52.8646 27.9597 53.2884 27.3686C53.8096 26.6413 54.4454 26.0094 55.0734 25.3755C55.3515 25.0955 55.6451 24.8486 56.0204 24.7241C56.3568 24.6113 56.4579 24.2088 56.8098 24.1116C56.8721 24.0941 56.8759 23.9541 56.8507 23.8627C56.8273 23.7772 56.7418 23.7169 56.6854 23.7713C56.3937 24.0533 56.0359 24.1641 55.6509 24.2283C55.6393 24.2283 55.6296 24.2477 55.6198 24.2574C55.2018 24.6152 54.7546 24.9419 54.3754 25.3366C53.8834 25.8519 53.3371 26.3108 52.8879 26.8688C52.3532 27.5319 51.9001 28.2474 51.4665 28.9727C51.169 29.4666 50.9143 29.9936 50.6654 30.5166C50.3971 31.0786 50.0762 31.6152 49.9596 32.2452C49.9071 32.533 49.8021 32.8247 49.6621 33.0813C49.5046 33.3711 49.2129 33.6005 49.3743 33.9874C49.2032 34.3219 49.2129 34.7108 49.0379 35.0452C48.8629 35.3816 48.7676 35.7413 48.8784 36.1205C48.9115 36.2333 48.8901 36.313 48.8084 36.3966C48.7579 36.4511 48.8084 36.5036 48.8901 36.5269L48.8843 36.525ZM83.336 24.4947C83.4779 24.7202 83.6101 24.8777 83.5012 25.1091C83.1474 25.8636 82.8576 26.6491 82.4512 27.3802C82.426 27.4249 82.4318 27.5066 82.3404 27.4755C81.9904 27.3608 82.0079 27.6641 82.0001 27.8294C81.9768 28.3524 81.8679 28.8424 81.6229 29.3052C81.4304 29.6708 81.2904 30.0655 80.9618 30.3552C80.8646 30.4388 80.7265 30.5691 80.7693 30.7363C80.8296 30.9677 80.6857 31.1311 80.6099 31.3216C80.3882 31.8874 79.8768 32.2938 79.7485 32.9141C79.7212 33.0483 79.5987 33.1299 79.4743 33.1941C79.2837 33.2933 79.0951 33.3944 79.2099 33.6705C79.239 33.7424 79.2099 33.828 79.1535 33.8766C78.8851 34.1061 78.8385 34.5299 78.4535 34.6583C78.3251 34.7011 78.294 34.8352 78.294 34.9577C78.294 35.2727 78.0976 35.4788 77.9071 35.6888C77.8371 35.7666 77.7496 35.8269 77.6854 35.9086C77.6193 35.9902 77.5551 36.0991 77.6504 36.1886C77.7535 36.2877 77.8351 36.1847 77.9168 36.1205C78.1637 35.928 78.329 35.6694 78.5176 35.4244C78.8093 35.0452 79.2351 34.7672 79.3129 34.2402C79.3265 34.145 79.4179 34.0633 79.4724 33.9738C79.8068 33.4294 80.1587 32.8947 80.466 32.3347C80.8024 31.7241 81.1135 31.0961 81.4071 30.4641C82.0546 29.0622 82.7701 27.6933 83.3165 26.2466C83.4682 25.8461 83.6335 25.4494 83.8046 25.0547C84.0749 24.4286 84.2324 23.7597 84.5376 23.1491C84.6601 22.9061 84.7496 22.6533 84.8099 22.3947C84.9149 21.9455 85.0335 21.5002 85.1676 21.0588C85.191 20.9849 85.2357 20.8877 85.0996 20.8274C84.8449 21.3738 84.5901 21.9144 84.4287 22.4977C84.2751 23.0577 84.1235 23.6177 83.8454 24.1349C83.7424 24.3294 83.6685 24.5433 83.3321 24.4986L83.336 24.4947ZM71.9571 24.6677C71.7335 24.7222 71.6168 24.9516 71.4107 25.0236C70.8429 25.2238 70.4676 25.673 70.0612 26.0794C69.8318 26.3108 69.6276 26.5694 69.4079 26.8105C68.6807 27.6019 67.9807 28.4108 67.6346 29.4588C67.5354 29.7563 67.3235 30.0149 67.2535 30.3086C67.1621 30.6858 67.0473 31.0533 66.9229 31.4188C66.8704 31.5724 66.8432 31.7358 66.7673 31.8836C66.7129 31.9886 66.7596 32.0877 66.851 32.1597C66.9248 32.218 67.0143 32.255 67.0979 32.2025C67.2029 32.1402 67.131 32.043 67.1154 31.9613C67.0921 31.8311 67.1407 31.7105 67.2243 31.6327C67.5568 31.3274 67.7357 30.9522 67.8193 30.5147C67.8835 30.1724 68.1518 29.9274 68.284 29.6144C68.6457 28.753 69.2037 28.018 69.7851 27.3024C70.4501 26.4799 71.1501 25.6866 71.8832 24.9244C71.9415 24.8641 72.0173 24.7999 71.9571 24.6716V24.6677ZM78.4982 32.463C78.681 32.3794 78.9707 32.4319 79.0018 32.183C79.0426 31.8583 79.2099 31.5977 79.3557 31.3294C79.7543 30.5983 80.1374 29.8574 80.4874 29.1069C80.8199 28.3952 81.1465 27.6777 81.4771 26.9622C81.9262 25.988 82.3151 24.9905 82.7157 23.9969C83.1279 22.9761 83.4604 21.9261 83.824 20.8858C84.1274 20.0166 84.3043 19.1086 84.6543 18.2549C84.7282 18.0761 84.7846 17.8894 84.8371 17.7047C84.8915 17.518 84.9343 17.3274 84.9207 17.133C84.9187 17.0961 84.8876 17.0455 84.8565 17.0299C84.7904 16.9969 84.7243 17.0455 84.7165 17.098C84.6776 17.4286 84.4696 17.7066 84.4229 18.0313C84.3199 18.7566 84.0321 19.4333 83.8415 20.1352C83.7676 20.4074 83.6374 20.6894 83.5401 20.9655C83.2971 21.648 82.8712 22.2683 82.7993 23.013C82.7876 23.1277 82.7196 23.2347 82.6826 23.3494C82.5232 23.8258 82.146 24.2127 82.0954 24.7358C82.074 24.9613 82.0099 25.1752 81.8971 25.3658C81.6501 25.7877 81.5451 26.2836 81.2224 26.6647C81.1854 26.7074 81.1504 26.7677 81.1446 26.8222C81.0882 27.4113 80.8024 27.9208 80.5515 28.4341C80.3532 28.8424 80.1607 29.2605 79.8632 29.6144C79.7874 29.7038 79.7329 29.8186 79.7465 29.9449C79.7582 30.0519 79.7349 30.1413 79.6765 30.2386C79.4432 30.6294 79.2993 31.0727 78.961 31.4013C78.889 31.4713 78.8112 31.5686 78.7976 31.6619C78.7568 31.9477 78.6304 32.1947 78.4982 32.4649V32.463ZM38.3143 29.9566C38.3454 29.9683 38.3765 29.9799 38.4076 29.9936C38.8062 29.2819 39.2962 28.6305 39.7629 27.9655C40.0098 27.6136 40.1984 27.2266 40.4162 26.8572C40.7565 26.2816 41.1668 25.7488 41.6159 25.2472C42.0243 24.7922 42.4443 24.3508 42.8545 23.8977C42.979 23.7616 43.1287 23.6294 43.119 23.3883C42.9284 23.4077 42.769 23.4622 42.6484 23.5594C42.174 23.9424 41.6607 24.2847 41.2659 24.7513C40.6437 25.4883 40.0293 26.233 39.5704 27.0905C39.2048 27.7711 38.7868 28.4244 38.5223 29.1555C38.429 29.4141 38.3823 29.6902 38.3143 29.9586V29.9566ZM56.9382 34.04C56.5862 34.5941 56.2868 35.09 55.964 35.5683C55.3904 36.42 54.7254 37.1977 53.9379 37.8608C53.8815 37.9075 53.8076 37.9561 53.7882 38.0183C53.6851 38.3683 53.3818 38.5141 53.1115 38.6911C53.0084 38.7591 52.9171 38.8233 52.8723 38.9419C52.8373 39.0333 52.8373 39.1208 52.9171 39.1869C52.9909 39.2491 53.0959 39.2802 53.1621 39.2083C53.3176 39.0391 53.5529 38.9886 53.7065 38.8252C54.2859 38.2088 54.9996 37.7402 55.5304 37.0655C55.9446 36.5405 56.384 36.0388 56.7029 35.4477C56.9265 35.0336 57.0548 34.6019 56.9382 34.04V34.04ZM73.7226 5.59661C73.849 5.56355 73.8724 5.48577 73.9151 5.42938C74.409 4.77799 74.9262 4.14605 75.5037 3.56466C76.1901 2.87438 76.9951 2.33772 77.7885 1.78744C77.9401 1.68244 78.1249 1.60466 78.1715 1.38688C76.896 1.31105 74.1679 3.89327 73.7207 5.59661H73.7226ZM70.3315 31.9574C70.5396 31.6366 70.6757 31.2963 70.841 30.9736C71.3543 29.9683 71.8637 28.9552 72.5618 28.0549C72.8185 27.7244 73.0848 27.4074 73.359 27.0905C73.4232 27.0166 73.5301 26.9136 73.429 26.8202C73.3182 26.7152 73.2482 26.8494 73.1801 26.9194C72.9643 27.1469 72.764 27.388 72.5404 27.6058C72.0173 28.1094 71.681 28.7433 71.3348 29.3636C70.9946 29.9722 70.7165 30.6197 70.3957 31.2361C70.2557 31.5044 70.2693 31.7047 70.3335 31.9574H70.3315ZM62.8376 38.7494C63.0535 38.6736 63.3665 38.6852 63.5318 38.4655C63.8351 38.0611 64.2726 37.8277 64.6343 37.5011C64.9862 37.1841 65.3576 36.8808 65.6298 36.4841C65.7154 36.3597 65.8301 36.2177 65.6823 36.0913C65.519 35.9513 65.381 36.0816 65.2623 36.2041C65.241 36.2255 65.2235 36.2488 65.204 36.2702C64.8929 36.6086 64.5857 36.9469 64.1793 37.1841C63.9887 37.295 63.8332 37.4661 63.7573 37.6877C63.6737 37.9327 63.5085 38.0941 63.2596 38.1525C63.0282 38.2069 62.9076 38.4227 62.7035 38.5122C62.651 38.5355 62.6218 38.5997 62.6568 38.6638C62.686 38.7202 62.7365 38.7475 62.8396 38.7494H62.8376ZM71.366 27.2072C71.2454 27.1391 71.1735 27.2072 71.1171 27.2674C70.8701 27.5319 70.5182 27.703 70.4637 28.1308C70.4287 28.4127 70.0729 28.4244 69.9368 28.6286C69.7968 28.8347 69.8648 29.1147 69.684 29.3286C69.546 29.4919 69.3476 29.5813 69.2348 29.7408C69.1162 29.9041 69.2621 30.1472 69.1707 30.3455C69.1512 30.3863 69.1337 30.4272 69.1182 30.468C69.054 30.6333 68.9821 30.7966 68.9296 30.9677C68.8946 31.0805 68.7701 31.2458 68.9762 31.2963C69.1454 31.3391 69.1785 31.168 69.2173 31.0358C69.2815 30.8063 69.3826 30.5944 69.5012 30.3863C69.6626 30.1063 69.7987 29.8108 69.9446 29.5211C70.2712 28.8716 70.6096 28.2319 71.0879 27.6777C71.2065 27.5397 71.3796 27.423 71.3679 27.2091L71.366 27.2072ZM39.8582 30.2327C40.0526 30.0733 40.1673 29.9449 40.212 29.7952C40.3851 29.2022 40.7254 28.7141 41.124 28.2611C41.1668 28.2124 41.1862 28.1619 41.1745 28.0997C41.1201 27.7827 41.3165 27.5474 41.4876 27.3394C41.7365 27.0322 41.8687 26.6666 42.0826 26.3458C42.1254 26.2816 42.1526 26.2019 42.067 26.1552C42.0029 26.1202 41.9601 26.1805 41.9232 26.2291C41.5887 26.6627 41.3262 27.1469 40.9762 27.5766C40.8246 27.7633 40.6904 28.0063 40.5912 28.2611C40.4551 28.6149 40.3209 28.9786 40.1226 29.3169C39.9807 29.558 39.8212 29.8283 39.8562 30.2347L39.8582 30.2327ZM75.846 5.72105C75.8829 5.70161 75.9335 5.69188 75.9587 5.66272C76.5771 4.93355 77.281 4.30161 78.0762 3.76688C78.2707 3.63466 78.4282 3.44994 78.644 3.34105C78.7062 3.30799 78.7782 3.23605 78.7257 3.16216C78.6576 3.06688 78.5585 3.11938 78.4923 3.17966C78.3951 3.27105 78.3174 3.38188 78.191 3.44022C77.524 3.74355 77.0457 4.28216 76.5324 4.77411C76.2562 5.03855 76.0171 5.34383 75.846 5.72299V5.72105ZM76.511 3.56077C75.9549 4.07605 75.3424 4.54661 75.0526 5.28744C75.5349 4.70799 76.0521 4.15966 76.511 3.56077ZM46.1484 26.023C46.1601 25.9122 46.1582 25.7994 46.0259 25.7741C45.8918 25.7508 45.8509 25.8616 45.8276 25.9666C45.8121 26.0386 45.8043 26.1144 45.8043 26.1883C45.8043 26.2758 45.7946 26.3905 45.8957 26.4177C46.0201 26.4508 46.0746 26.3341 46.1134 26.2408C46.1426 26.1747 46.1387 26.0949 46.1484 26.023V26.023ZM85.2765 20.4716C85.5779 20.1391 85.6226 19.9388 85.471 19.5111C85.4632 19.8766 85.1696 20.0886 85.2765 20.4716ZM76.9251 37.3338C76.9173 37.2347 76.8882 37.1336 76.756 37.1375C76.6004 37.1413 76.5207 37.2463 76.5012 37.3883C76.4857 37.503 76.5362 37.5983 76.6646 37.5963C76.8201 37.5963 76.8901 37.4855 76.9251 37.3358V37.3338ZM77.0107 36.9411C77.2557 36.7719 77.4171 36.6086 77.4968 36.4511C77.0651 36.4686 77.036 36.4977 77.0107 36.9411ZM55.4779 26.0755C55.4584 25.9958 55.4254 25.9627 55.3787 25.9724C55.2815 25.9938 54.9937 26.4002 55.0093 26.4974C55.0209 26.5733 55.0832 26.5908 55.1396 26.5499C55.3146 26.4255 55.3359 26.1961 55.4759 26.0755H55.4779ZM66.676 38.1699C66.4212 38.2827 66.2637 38.4752 66.1743 38.7261C66.3979 38.5919 66.6118 38.448 66.676 38.1699ZM67.3254 32.7819C67.3215 32.7041 67.3098 32.6127 67.2185 32.6147C67.0823 32.6186 67.0143 32.7294 66.9812 32.848C66.9579 32.9316 67.0104 32.9958 67.0979 33.0016C67.2496 33.0113 67.306 32.9141 67.3235 32.7819H67.3254ZM78.3115 33.1066C78.2901 33.0055 78.2279 32.9355 78.1307 32.9336C78.0024 32.9316 77.9479 33.0211 77.9499 33.1397C77.9499 33.2427 78.0101 33.3166 78.1151 33.3069C78.226 33.2972 78.3057 33.2311 78.3115 33.1066V33.1066ZM62.754 28.3466C62.6335 28.2144 62.4915 28.2494 62.3651 28.2338C62.301 28.2261 62.2601 28.2844 62.2504 28.3486C62.2368 28.4361 62.2873 28.4983 62.3651 28.5119C62.5246 28.5391 62.6451 28.4633 62.754 28.3466ZM46.9476 40.6822C47.1207 40.865 47.3073 40.8825 47.5076 40.7308C47.3248 40.653 47.1596 40.7483 46.9476 40.6822ZM86.2701 16.2619C86.2526 16.1608 86.1982 16.0811 86.0874 16.0597C86.0407 16.0519 86.0076 16.0888 86.0037 16.1374C85.9921 16.2522 86.1126 16.3883 86.204 16.3649C86.2507 16.3533 86.2662 16.3144 86.2701 16.2619V16.2619ZM50.644 40.8358C50.6479 40.7405 50.6109 40.653 50.5176 40.6375C50.4379 40.6238 50.399 40.7036 50.3834 40.7775C50.364 40.8747 50.3932 40.9563 50.5001 40.9661C50.5779 40.9738 50.6323 40.9194 50.644 40.8358V40.8358ZM56.5221 39.0625C56.4307 39.0936 56.384 39.1616 56.3918 39.2588C56.3996 39.3366 56.4443 39.4008 56.5357 39.3755C56.6407 39.3463 56.6504 39.255 56.6426 39.1655C56.6368 39.1013 56.5959 39.0644 56.524 39.0625H56.5221ZM79.8924 0.88716C79.9351 0.95716 79.9818 1.04855 80.1004 1.05049C80.1646 1.05049 80.2074 1.00188 80.1957 0.937715C80.1743 0.830771 80.1082 0.754938 79.9915 0.752993C79.9293 0.752993 79.8924 0.799659 79.8924 0.889104V0.88716ZM56.0262 39.5972C56.0126 39.5194 55.9601 39.5 55.8979 39.5077C55.8182 39.5194 55.7715 39.5738 55.7696 39.6555C55.7696 39.7197 55.8007 39.7722 55.8687 39.7644C55.9659 39.7527 56.0204 39.6905 56.0243 39.5972H56.0262ZM68.7857 31.9613C68.8732 31.9049 68.9451 31.8213 68.9237 31.6891C68.916 31.6425 68.8693 31.6191 68.8265 31.6366C68.7196 31.6813 68.6768 31.7708 68.6787 31.8816C68.6787 31.9302 68.7079 31.9613 68.7857 31.9613V31.9613ZM60.8193 36.7719C60.759 36.7038 60.7454 36.6766 60.7221 36.665C60.656 36.6261 60.584 36.4977 60.514 36.5988C60.444 36.7 60.5723 36.733 60.6482 36.7622C60.6851 36.7758 60.7279 36.768 60.8193 36.7738V36.7719ZM80.7129 2.70716C80.6896 2.64494 80.6351 2.62744 80.5768 2.62355C80.5282 2.61966 80.4893 2.64688 80.5029 2.69744C80.5185 2.76161 80.5729 2.78299 80.6332 2.78105C80.6779 2.78105 80.7149 2.75966 80.7129 2.70522V2.70716ZM38.3065 30.3241C38.3045 30.2716 38.2773 30.2366 38.2248 30.2463C38.1607 30.258 38.1237 30.3066 38.1218 30.3727C38.1198 30.4233 38.149 30.4622 38.2015 30.4524C38.2657 30.4408 38.2948 30.3883 38.3065 30.3261V30.3241ZM84.1176 14.5566C84.1157 14.4944 84.0962 14.4361 84.0282 14.4283C83.9796 14.4244 83.9504 14.4652 83.9426 14.5138C83.9329 14.5761 83.9465 14.6402 84.0107 14.6577C84.0826 14.6772 84.1099 14.6188 84.1176 14.5566V14.5566ZM69.4468 34.9383C69.4993 34.9422 69.5304 34.913 69.5362 34.8683C69.544 34.8041 69.5071 34.7633 69.4429 34.7575C69.3962 34.7536 69.3612 34.7827 69.3554 34.8313C69.3476 34.8974 69.3826 34.9344 69.4468 34.9402V34.9383ZM57.7723 24.2186C57.7723 24.1699 57.7509 24.133 57.7023 24.1291C57.6421 24.1252 57.5857 24.1466 57.5662 24.2049C57.5448 24.273 57.5896 24.308 57.6537 24.3119C57.7159 24.3158 57.7568 24.2808 57.7723 24.2166V24.2186ZM40.4415 32.1422C40.3793 32.1674 40.3559 32.2219 40.3559 32.2822C40.3559 32.3308 40.387 32.3755 40.4376 32.3483C40.4687 32.3327 40.4862 32.2783 40.494 32.2394C40.5018 32.2005 40.4979 32.1538 40.4415 32.1422V32.1422ZM83.6685 17.1738C83.6646 17.1272 83.6412 17.0922 83.5946 17.0883C83.546 17.0863 83.5168 17.1174 83.5149 17.1641C83.5129 17.2108 83.5382 17.2458 83.5868 17.2477C83.6354 17.2497 83.6607 17.2186 83.6685 17.1719V17.1738ZM80.5126 2.40188C80.5301 2.37855 80.5749 2.34938 80.5768 2.31827C80.5807 2.2541 80.534 2.2191 80.4679 2.22494C80.4232 2.22883 80.3882 2.26383 80.3901 2.30855C80.3901 2.37272 80.4329 2.40772 80.5146 2.40188H80.5126ZM68.5582 32.5874C68.5368 32.6011 68.5037 32.6127 68.4979 32.6302C68.494 32.6497 68.5193 32.6749 68.531 32.6963C68.5523 32.6827 68.5854 32.6711 68.5912 32.6536C68.5951 32.6341 68.5698 32.6088 68.5582 32.5874ZM66.0887 37.2891C66.0693 37.2736 66.0479 37.2444 66.0285 37.2444C65.9818 37.2444 65.9507 37.2775 65.9623 37.3241C65.9662 37.3436 66.0012 37.3688 66.0207 37.3688C66.0673 37.3688 66.0926 37.3377 66.0887 37.2891V37.2891ZM77.8118 33.5772C77.7982 33.5986 77.7865 33.6199 77.7749 33.6413C77.7865 33.6491 77.8079 33.6627 77.8079 33.6608C77.8235 33.6413 77.8351 33.6199 77.8487 33.5986L77.8137 33.5772H77.8118ZM73.9132 24.623C73.9365 24.6113 73.9715 24.6055 73.9773 24.588C73.9929 24.5433 73.9715 24.5063 73.919 24.5102C73.8996 24.5122 73.8685 24.5433 73.8685 24.5627C73.8685 24.5822 73.8976 24.6036 73.9132 24.623ZM85.1968 16.1822C85.1929 16.1686 85.191 16.1491 85.1813 16.1452C85.1521 16.1297 85.1268 16.1433 85.119 16.1783C85.1171 16.1899 85.1249 16.2094 85.1346 16.2152C85.1637 16.2308 85.1871 16.2191 85.1968 16.1822ZM61.6301 26.5091C61.6146 26.4897 61.599 26.4566 61.5796 26.4547C61.5582 26.4527 61.5193 26.4722 61.5135 26.4897C61.496 26.5402 61.5251 26.5733 61.5776 26.5636C61.5971 26.5597 61.6126 26.5286 61.6301 26.5091ZM43.8773 42.8852C43.8618 42.9027 43.8462 42.9222 43.8307 42.9397C43.8501 42.9533 43.8715 42.9766 43.887 42.9747C43.9045 42.9708 43.9182 42.9416 43.9337 42.9241C43.9143 42.9105 43.8968 42.8988 43.8754 42.8852H43.8773ZM46.7609 41.3666C46.7512 41.3452 46.7434 41.3102 46.7298 41.3063C46.7104 41.3025 46.6832 41.3219 46.6598 41.3297C46.6696 41.3511 46.6773 41.3861 46.6929 41.39C46.7123 41.3958 46.7376 41.3744 46.7609 41.3647V41.3666Z" fill="white"/>
<path d="M11.1563 54.4041C11.0533 54.9175 10.8335 55.3861 10.606 55.8508C10.503 56.0608 10.258 56.1619 10.1977 56.405C10.186 56.4478 10.1277 56.4847 10.0694 56.4691C10.0091 56.4516 9.99937 56.3991 10.0033 56.3447C10.0072 56.2669 10.0285 56.1794 9.91771 56.16C9.82826 56.1444 9.76993 56.1989 9.74076 56.2786C9.69215 56.4089 9.57743 56.4789 9.4841 56.5664C9.36354 56.6772 9.25854 56.7666 9.0991 56.5878C8.98632 56.4633 8.83465 56.5197 8.73354 56.6578C8.65187 56.7705 8.58187 56.9475 8.41271 56.8639C8.26493 56.788 8.32715 56.613 8.33882 56.4711C8.34854 56.3447 8.41465 56.2222 8.37382 56.0666C8.1716 56.0764 8.05299 56.1833 7.96937 56.3603C7.93049 56.44 7.85854 56.5236 7.7516 56.4614C7.65437 56.4069 7.65049 56.2961 7.70493 56.2203C7.82354 56.0569 7.83521 55.8916 7.79243 55.703C7.77687 55.635 7.80021 55.5416 7.83521 55.4775C8.11715 54.9797 8.26687 54.4255 8.4866 53.9025C9.0291 52.6075 9.56965 51.3125 10.1724 50.0427C10.9308 48.4425 11.6988 46.85 12.5135 45.2789C13.1416 44.0675 13.7074 42.823 14.3024 41.5941C14.3899 41.4133 14.3958 41.2169 14.4288 41.0244C14.4522 40.8864 14.3258 40.8047 14.2441 40.898C14.038 41.1333 13.8183 41.1566 13.5519 41.0283C13.4644 40.9855 13.373 41.0361 13.2874 41.0672C13.1999 41.1022 13.1105 41.1177 13.0249 41.0633C12.7877 40.9155 12.603 41.0691 12.4338 41.1877C12.3599 41.2383 12.286 41.3394 12.2122 41.3122C11.9322 41.2091 11.6852 41.4327 11.411 41.3647C11.2847 41.3336 11.1952 41.4366 11.0999 41.5027C10.9794 41.5864 10.8122 41.6816 10.7033 41.5961C10.5244 41.4541 10.4213 41.4852 10.2833 41.6291C10.1744 41.7419 10.0538 41.7477 9.97215 41.5805C9.94882 41.5319 9.91382 41.493 9.85354 41.495C9.48021 41.9402 8.9416 41.9636 8.42437 42.0219C8.2766 42.0394 8.13076 42.018 8.05104 42.1639C7.94021 42.37 7.73604 42.4439 7.54743 42.51C7.17993 42.6422 6.83187 42.825 6.46243 42.9416C6.0716 43.0661 5.70215 43.2314 5.32493 43.3733C4.88549 43.5386 4.48299 43.7758 4.04743 43.9372C3.90549 43.9897 3.81021 44.0908 3.71299 44.1977C3.30465 44.6489 2.76799 44.6897 2.23715 44.5691C1.82104 44.4739 1.40493 44.3727 0.988819 44.2794C0.619374 44.1977 0.545485 44.1433 0.559096 43.7661C0.566874 43.5697 0.537708 43.4783 0.308264 43.4939C0.0671526 43.5114 0.0146523 43.4414 0.00104118 43.21C-0.0106255 42.9883 0.0768748 42.8016 0.207153 42.6344C0.358819 42.438 0.541597 42.2689 0.741875 42.1211C1.34854 41.67 1.96687 41.2383 2.65132 40.9097C2.88465 40.7969 3.1141 40.6705 3.32993 40.5247C3.8841 40.1514 4.52382 39.9472 5.10132 39.6244C5.42215 39.4455 5.7916 39.3969 6.13187 39.2705C6.56937 39.1052 7.00493 38.9341 7.44632 38.7766C7.75354 38.6677 8.06854 38.5802 8.39715 38.5627C8.47493 38.5589 8.55465 38.5491 8.62076 38.5025C8.73548 38.4208 8.8541 38.3897 8.98437 38.4655C9.04465 38.5005 9.11076 38.5161 9.16132 38.4558C9.3791 38.2011 9.69604 38.2069 9.98382 38.1525C10.5847 38.0397 11.1952 37.9969 11.798 37.9191C12.8305 37.785 13.861 37.6547 14.9013 37.6216C15.2008 37.6119 15.5002 37.5925 15.7977 37.5964C16.1166 37.5983 16.2955 37.4389 16.4238 37.1608C17.0013 35.9125 17.5827 34.6641 18.1758 33.4216C19.1033 31.483 20.0872 29.5736 21.1469 27.705C21.6019 26.9019 22.0724 26.1047 22.576 25.3327C23.4919 23.9288 24.4252 22.5366 25.378 21.1561C25.6988 20.6894 26.0313 20.2072 26.6166 20.0069C26.7683 19.9544 26.916 19.9213 27.0735 19.935C27.2097 19.9466 27.336 19.9777 27.3808 20.1294C27.4294 20.2908 27.5421 20.2811 27.6841 20.2947C28.108 20.3316 28.5396 20.3783 28.9052 20.6291C29.298 20.8994 29.716 21.1483 30.0602 21.473C30.4724 21.8638 30.8516 22.2975 31.1666 22.7797C31.4097 23.153 31.5477 23.5769 31.7577 23.9658C32.0319 24.4752 32.1797 25.0411 32.4305 25.5661C32.5569 25.8286 32.5724 26.1436 32.6385 26.4352C32.6677 26.5616 32.6891 26.6919 32.763 26.8027C32.833 26.9097 32.8447 27.0225 32.7863 27.1352C32.6988 27.3025 32.7338 27.4288 32.8933 27.5358C32.9419 27.5688 32.9827 27.635 32.9983 27.6952C33.0799 28.0355 33.2491 28.3563 33.2685 28.7122C33.2977 29.245 33.4766 29.7622 33.4805 30.2891C33.4844 30.8316 33.7644 31.2983 33.7799 31.835C33.7935 32.3794 33.9238 32.918 33.8966 33.4664C33.8869 33.6783 33.951 33.8786 33.9763 34.0847C34.0871 35.0025 34.0755 35.93 34.1785 36.8477C34.1883 36.9372 34.1785 37.0383 34.2116 37.118C34.373 37.4875 34.3477 37.8589 34.2602 38.238C34.198 38.5064 34.2155 38.7825 34.2174 39.0547C34.2194 39.2511 34.2252 39.4455 34.0055 39.5602C33.8655 39.6341 33.9335 39.7586 34.0074 39.8208C34.3477 40.1066 34.2641 40.4897 34.2952 40.8611C34.3885 41.9655 34.2894 43.0739 34.4119 44.1764C34.4216 44.2541 34.4235 44.3319 34.4177 44.4097C34.3497 45.3722 34.4274 46.3347 34.4547 47.2952C34.5072 49.1172 34.5344 50.9391 34.6063 52.7591C34.6472 53.813 34.6433 54.8689 34.688 55.9208C34.7327 56.9747 34.7249 58.0286 34.7677 59.0805C34.7969 59.7961 34.8416 60.5116 34.8163 61.2253C34.793 61.8864 34.8766 62.5494 34.8085 63.2066C34.7055 64.2411 34.7755 65.2853 34.618 66.3197C34.5285 66.9069 34.4955 67.5078 34.4469 68.1047C34.4158 68.4839 34.3399 68.8533 34.2796 69.2228C34.1921 69.7653 34.2174 70.3136 34.1552 70.8561C34.1338 71.0505 34.1027 71.2392 33.9374 71.3772C33.7216 71.245 33.846 70.9689 33.6827 70.8308C33.5524 70.8794 33.5602 71.0097 33.4902 71.0817C33.3094 71.2625 33.1577 71.4978 32.8369 71.3967C32.7085 71.3558 32.6094 71.4258 32.5355 71.5269C32.4577 71.6339 32.3644 71.7194 32.2496 71.7875C32.0455 71.91 31.8549 71.908 31.6741 71.7505C31.5749 71.665 31.4835 71.5736 31.3902 71.4822C31.2949 71.3889 31.2055 71.2994 31.0538 71.3811C30.906 71.4608 30.8088 71.3636 30.7174 71.2644C30.5347 71.0661 30.4452 70.823 30.3888 70.5664C30.2391 69.8878 30.2372 69.1936 30.2197 68.5072C30.1808 67.0372 30.1885 65.5653 30.1477 64.0933C30.0894 62.0633 29.9922 60.0333 29.9358 58.0033C29.8463 54.8008 29.7083 51.6002 29.7335 48.3958C29.7413 47.4586 29.7044 46.5214 29.7005 45.5841C29.6946 44.0616 29.6966 42.5372 29.7005 41.0147C29.7005 40.758 29.6927 40.5227 29.4224 40.3808C29.1347 40.2311 28.841 40.2661 28.5785 40.4877C28.3997 40.6375 28.1799 40.688 27.9583 40.6219C27.7327 40.5558 27.5344 40.5636 27.3166 40.6627C27.126 40.7483 26.9102 40.7775 26.7255 40.6219C26.5933 40.5111 26.4727 40.55 26.3288 40.6083C26.0994 40.7016 25.8777 40.8339 25.5996 40.7094C25.481 40.6569 25.3449 40.795 25.1952 40.8066C24.7285 40.8416 24.2735 40.898 23.7971 40.8572C23.278 40.8125 22.7452 40.8455 22.2222 40.9136C22.1055 40.9291 21.9869 40.9427 21.878 40.8883C21.7652 40.83 21.6583 40.8241 21.5435 40.8883C21.5008 40.9116 21.4308 40.933 21.3958 40.9136C21.0127 40.7016 20.6316 40.9291 20.2505 40.9175C20.0424 40.9116 19.8305 40.97 19.6283 40.9408C19.2549 40.8844 18.9088 40.9797 18.5588 41.0652C18.273 41.1352 18.1485 41.3822 18.0474 41.6136C17.7519 42.2922 17.4194 42.9533 17.0441 43.5911C16.9585 43.7369 16.8788 43.8847 16.8049 44.0364C16.4938 44.678 16.2002 45.3314 15.8463 45.9497C15.3699 46.7839 14.9558 47.6491 14.4833 48.4872C14.1974 48.9947 13.9116 49.508 13.6452 50.0291C13.4624 50.385 13.233 50.7194 13.0249 51.0616C12.7002 51.5964 12.4105 52.1525 12.146 52.7105C11.9516 53.1208 11.7085 53.5039 11.5219 53.918C11.4363 54.1066 11.3216 54.2836 11.1408 54.4041C11.2322 53.9083 11.5627 53.5233 11.7863 53.0936C12.0838 52.52 12.2822 51.888 12.7041 51.3805C12.7372 51.3416 12.7547 51.2891 12.7663 51.2386C12.8908 50.7408 13.2097 50.3344 13.4099 49.8716C13.6822 49.2436 14.0613 48.6622 14.353 48.038C14.5591 47.5966 14.843 47.1961 15.0685 46.7605C15.2066 46.4941 15.3855 46.2375 15.5158 45.9575C15.8347 45.2769 16.2372 44.6372 16.5522 43.9547C16.7913 43.4355 17.0402 42.9202 17.3202 42.4225C17.5127 42.0802 17.6333 41.7089 17.8044 41.3589C17.8199 41.3258 17.8044 41.283 17.7169 41.283C17.5224 41.6991 17.2035 42.0647 17.0577 42.5294C17.0072 42.6889 16.9216 42.8405 16.8399 42.9883C16.4763 43.6397 16.101 44.2852 15.7724 44.9561C15.5644 45.38 15.3213 45.7844 15.1347 46.2219C14.8838 46.8033 14.5572 47.3516 14.2441 47.9019C13.9874 48.353 13.7424 48.8061 13.5188 49.2747C13.3963 49.5333 13.2602 49.7783 13.0483 49.9864C12.8752 50.1536 12.7449 50.3558 12.6788 50.6066C12.568 51.0189 12.2841 51.3572 12.1402 51.7597C12.0955 51.8861 11.9924 51.9697 11.8777 52.0397C11.7299 52.1291 11.6502 52.2341 11.6288 52.4364C11.6016 52.6891 11.5919 52.9828 11.3508 53.1753C11.2944 53.22 11.2691 53.3055 11.238 53.3775C11.0863 53.7372 10.9269 54.0891 10.6722 54.3964C10.5166 54.585 10.4758 54.8028 10.5847 55.0497C10.7752 54.9758 10.8472 54.8358 10.923 54.7036C10.9852 54.5908 11.0202 54.4586 11.1524 54.4003L11.1563 54.4041ZM28.0205 24.1836C27.8299 24.2419 27.7697 24.345 27.6997 24.4344C27.1494 25.1577 26.6263 25.9025 26.1169 26.6569C24.643 28.8386 23.3674 31.1369 22.1405 33.4625C21.6252 34.4405 21.1488 35.438 20.6569 36.4297C20.5305 36.6864 20.4119 36.9469 20.2952 37.2075C20.2583 37.2872 20.2155 37.4291 20.3419 37.4252C20.5947 37.4175 20.8047 37.5516 21.0555 37.5633C21.6019 37.5886 22.1483 37.5711 22.6946 37.5944C23.6571 37.6352 24.6197 37.6216 25.5822 37.6391C26.393 37.6547 27.1902 37.4991 27.9952 37.4719C28.4152 37.4583 28.8216 37.3825 29.2202 37.2561C29.613 37.1336 29.6713 37.0539 29.681 36.6436C29.6908 36.1614 29.6402 35.683 29.6305 35.2027C29.6013 33.7055 29.5138 32.2102 29.3777 30.7208C29.3233 30.1258 29.3097 29.523 29.2066 28.9358C29.1074 28.3738 29.018 27.808 28.9072 27.2461C28.7535 26.4683 28.5902 25.6925 28.3627 24.9302C28.283 24.6638 28.0069 24.5122 28.0224 24.1797L28.0205 24.1836ZM26.6594 21.4283C26.6555 21.3291 26.6127 21.2591 26.5194 21.2144C26.3171 21.1191 26.1616 21.1658 26.006 21.4263C25.5024 22.2625 24.9463 23.0616 24.396 23.8686C23.591 25.0488 22.8171 26.2505 22.0899 27.4813C21.3841 28.6772 20.7249 29.9002 20.0833 31.1311C19.603 32.0527 19.1519 32.988 18.691 33.9175C18.3683 34.5689 18.0591 35.2261 17.7344 35.8755C17.5244 36.2936 17.3494 36.7291 17.1588 37.1589C17.1044 37.2814 17.046 37.4136 17.2113 37.4933C17.3494 37.5614 17.4699 37.5011 17.5477 37.3825C17.6255 37.2639 17.6877 37.1336 17.7499 37.0052C18.0319 36.42 18.3099 35.8308 18.5938 35.2455C19.3133 33.7736 20.0094 32.29 20.8008 30.853C21.2013 30.1258 21.5805 29.383 21.9849 28.6577C23.3324 26.2466 24.8608 23.9522 26.5213 21.7433C26.5933 21.648 26.6633 21.5566 26.6594 21.4302V21.4283ZM8.50993 55.5864C8.50993 55.5864 8.56437 55.5494 8.60132 55.4911C8.74521 55.2597 8.94354 55.0691 9.06021 54.8164C9.70771 53.4125 10.3708 52.0144 11.0202 50.6105C11.168 50.2916 11.3605 49.9961 11.5044 49.6772C11.7183 49.2027 11.9419 48.7341 12.181 48.2714C12.7935 47.0794 13.408 45.8894 14.0147 44.6936C14.491 43.7525 14.9538 42.8075 15.4224 41.8625C15.4983 41.7108 15.5683 41.5572 15.6383 41.4036C15.6752 41.3219 15.7219 41.2266 15.6422 41.1489C15.5449 41.0555 15.4477 41.1236 15.3602 41.178C15.1502 41.3083 15.0433 41.53 14.9344 41.7283C14.6797 42.1911 14.4677 42.6791 14.2383 43.1555C13.9816 43.6922 13.7269 44.2347 13.4644 44.7694C12.8733 45.9847 12.2277 47.1727 11.6327 48.3861C10.9133 49.8541 10.083 51.2678 9.46465 52.7864C9.40243 52.94 9.27215 53.0683 9.21576 53.2258C8.97271 53.8986 8.65965 54.5403 8.38354 55.1975C8.35437 55.2694 8.32521 55.3433 8.30965 55.4191C8.28826 55.5164 8.34854 55.5611 8.50993 55.5864V55.5864ZM27.7035 23.6294C27.6491 23.6119 27.6141 23.6313 27.5927 23.6644C27.2544 24.168 26.7994 24.5725 26.4941 25.115C25.973 26.0405 25.2672 26.8494 24.7285 27.7691C24.4524 28.2397 24.1394 28.6888 23.8691 29.1633C23.4763 29.8497 23.1069 30.5497 22.7297 31.2458C22.4147 31.8291 22.0724 32.3989 21.7963 33.0016C21.4833 33.6861 21.0458 34.3064 20.7988 35.02C20.7871 35.0569 20.7599 35.088 20.7405 35.1211C20.5033 35.5255 20.3224 35.9572 20.093 36.3655C19.9452 36.6319 19.8558 36.9391 19.7274 37.223C19.7041 37.2736 19.708 37.3319 19.776 37.3416C19.8052 37.3455 19.8596 37.3164 19.8694 37.2911C19.988 36.9858 20.198 36.7272 20.3263 36.4316C20.6977 35.5858 21.143 34.7769 21.5513 33.9486C21.9033 33.2369 22.2883 32.5447 22.6597 31.8447C22.9085 31.3741 23.1497 30.8997 23.4141 30.4388C23.9002 29.595 24.4038 28.7569 24.9016 27.9188C25.4402 27.0127 26.0099 26.1261 26.6497 25.29C26.9899 24.8466 27.2797 24.3702 27.6277 23.9347C27.6977 23.8472 27.7774 23.7519 27.7016 23.6313L27.7035 23.6294ZM34.058 66.5375C33.9452 67.4786 33.8305 68.4178 33.7197 69.3589C33.706 69.4755 33.706 69.5922 33.708 69.7108C33.708 69.7866 33.7119 69.8683 33.813 69.8897C33.8344 69.8761 33.8733 69.8625 33.8733 69.8489C33.8908 69.355 34.0677 68.8786 34.056 68.3828C34.0502 68.1592 34.0774 67.9433 34.128 67.7255C34.2213 67.3289 34.2096 66.9322 34.058 66.5375V66.5375ZM31.1433 70.0005C31.3183 69.8664 31.3144 69.6855 31.3105 69.5086C31.2871 68.6025 31.258 67.6964 31.2308 66.7883C31.2269 66.6833 31.2152 66.5783 31.2074 66.4733C31.0558 67.6478 31.0285 68.8203 31.1433 70.0005ZM32.5705 69.6233C32.7572 68.6589 32.7649 68.1689 32.6191 67.918C32.5141 68.3594 32.4752 69.2442 32.5705 69.6233ZM10.5166 53.3211C10.746 53.0975 10.7985 52.8739 10.8783 52.6639C10.8919 52.6289 10.8958 52.5841 10.8549 52.5608C10.818 52.5394 10.7772 52.5569 10.7538 52.5861C10.608 52.7786 10.4719 52.975 10.5147 53.3211H10.5166ZM10.0305 54.1728C10.223 54.0716 10.3552 53.9764 10.4058 53.8091C10.433 53.7178 10.4019 53.6186 10.2969 53.5933C10.2055 53.5719 10.1627 53.6439 10.1433 53.7275C10.1122 53.8597 10.0772 53.9919 10.0305 54.1728ZM15.473 43.6533C15.6052 43.5697 15.7044 43.4939 15.6363 43.3402C15.6285 43.3247 15.5877 43.3072 15.5722 43.313C15.4458 43.3675 15.4535 43.4919 15.4322 43.5989C15.4322 43.6066 15.4458 43.6183 15.473 43.6533ZM12.4319 40.8591C12.5155 40.8455 12.5641 40.793 12.5777 40.7114C12.5913 40.6355 12.5524 40.5869 12.4766 40.5889C12.3813 40.5908 12.3541 40.6666 12.3502 40.7464C12.3483 40.7989 12.3716 40.8436 12.4299 40.8591H12.4319ZM18.8038 36.5541C18.8116 36.6066 18.831 36.6591 18.8933 36.6455C18.9594 36.6319 18.9944 36.5775 19.0041 36.5114C19.0138 36.455 18.9866 36.4083 18.9283 36.4064C18.831 36.4025 18.8058 36.4725 18.8038 36.5541V36.5541ZM32.5996 27.6738C32.5588 27.6816 32.5335 27.7069 32.5277 27.7458C32.5199 27.8002 32.5394 27.8469 32.5996 27.8508C32.6385 27.8547 32.6658 27.8216 32.6716 27.7827C32.6774 27.7283 32.658 27.6875 32.5996 27.6738ZM9.75049 54.655C9.6941 54.6647 9.66299 54.7055 9.65132 54.7541C9.63965 54.7969 9.66493 54.8319 9.7116 54.8144C9.76215 54.7969 9.79326 54.7561 9.79326 54.6997C9.79326 54.6841 9.76604 54.6686 9.75049 54.653V54.655ZM1.18521 42.9572C1.20271 42.9377 1.23771 42.9144 1.24549 42.8852C1.25715 42.8425 1.22021 42.8133 1.18132 42.825C1.15215 42.8347 1.11715 42.8658 1.10937 42.895C1.09771 42.9358 1.13076 42.9591 1.18521 42.9572ZM30.7135 27.3122C30.7563 27.3102 30.7874 27.2888 30.7855 27.2461C30.7835 27.2072 30.7524 27.18 30.7116 27.1761C30.6688 27.1722 30.6397 27.1975 30.6416 27.2402C30.6435 27.2811 30.6747 27.3044 30.7135 27.3122ZM24.083 26.8805C24.1296 26.8747 24.1491 26.8436 24.1413 26.8027C24.1374 26.7852 24.1102 26.7561 24.0927 26.7561C24.048 26.7561 24.0266 26.7911 24.0344 26.8319C24.0383 26.8494 24.0655 26.863 24.083 26.8786V26.8805Z" fill="white"/>
<path d="M116.219 37.8626C116.312 37.9092 116.357 37.8626 116.409 37.8373C116.734 37.6876 116.751 37.6876 116.872 38.0337C116.934 38.2145 117.022 38.2378 117.169 38.1523C117.222 38.1231 117.267 38.0803 117.321 38.057C117.556 37.9501 117.677 37.9928 117.763 38.2476C117.815 38.407 117.831 38.5703 118.052 38.5839C118.14 38.5898 118.165 38.6695 118.153 38.7531C118.114 39.0175 118.085 39.282 117.889 39.4978C117.588 39.8303 117.273 40.1473 116.895 40.3962C116.508 40.6489 116.071 40.6334 115.641 40.5906C115.425 40.5692 115.229 40.5673 115.031 40.6509C114.613 40.8239 114.179 40.7656 113.749 40.7248C113.564 40.7073 113.421 40.5906 113.296 40.4564C113.08 40.225 112.826 40.0384 112.555 39.8828C112.223 39.6923 112.087 39.3967 112.03 39.0448C111.939 38.4828 111.925 37.9345 112.03 37.3609C112.205 36.4081 112.363 35.4534 112.584 34.5103C112.781 33.6684 112.938 32.8109 113.224 32.0001C113.413 31.4634 113.454 30.9014 113.644 30.3726C113.852 29.7951 113.957 29.1942 114.082 28.5973C114.113 28.4514 114.134 28.3037 114.148 28.1559C114.163 27.9712 114.064 27.8351 113.905 27.7631C113.724 27.6814 113.599 27.7903 113.483 27.9226C112.12 29.4528 110.976 31.1426 109.876 32.8634C109.627 33.2523 109.374 33.6392 109.154 34.0476C109.092 34.1642 109.011 34.2751 108.923 34.3762C108.703 34.627 108.577 34.6231 108.439 34.3237C108.348 34.1253 108.254 34.0903 108.066 34.1778C107.976 34.2187 107.861 34.2089 107.756 34.2128C107.605 34.2206 107.496 34.1856 107.511 33.9892C107.525 33.8045 107.406 33.7889 107.28 33.8687C107.08 33.997 106.889 34.1409 106.695 34.2809C106.566 34.3723 106.436 34.4364 106.284 34.3334C106.127 34.2245 106.018 34.0884 106.057 33.8842C106.109 33.612 106.092 33.3106 106.395 33.122C106.172 32.9567 106.024 32.9606 105.894 33.1414C105.859 33.1901 105.827 33.2406 105.794 33.2912C105.722 33.4001 105.662 33.5673 105.507 33.5245C105.312 33.4739 105.312 33.2776 105.316 33.1162C105.322 32.9237 105.339 32.7273 105.372 32.5387C105.588 31.2728 105.732 30.0012 105.822 28.7217C105.835 28.5195 105.921 28.2589 105.705 28.1442C105.476 28.0217 105.347 28.2803 105.188 28.3989C104.194 29.132 103.519 30.1295 102.886 31.1639C102.738 31.4051 102.582 31.6442 102.405 31.8639C102.04 32.3131 101.948 32.8984 101.645 33.3748C101.367 33.8123 101.169 34.2887 100.945 34.7534C100.716 35.2298 100.492 35.7198 100.156 36.1495C100.002 36.3439 99.9242 36.6259 99.8055 36.8631C99.6967 37.077 99.5664 37.2753 99.3875 37.4406C99.3117 37.5106 99.2319 37.6137 99.123 37.5845C98.8644 37.5145 98.6953 37.6312 98.5417 37.812C98.4153 37.9598 98.2597 37.9812 98.1022 37.8742C97.8572 37.7089 97.6686 37.7109 97.3769 37.8626C97.1611 37.9753 96.8364 37.9539 96.5778 38.0745C96.5447 38.0901 96.4669 38.0764 96.4514 38.0512C96.3017 37.812 95.9944 37.7187 95.8758 37.4737C95.7961 37.3064 95.7086 37.2034 95.5355 37.1626C95.4928 37.1528 95.4383 37.1412 95.413 37.1101C95.1078 36.7212 94.7733 37.0245 94.4525 37.0673C94.4272 37.0712 94.3844 37.0984 94.3844 37.1178C94.363 37.4951 94.0305 37.4581 93.8011 37.5534C93.5016 37.6778 93.3305 37.9617 93.0642 38.1251C93.0428 38.1387 93.0175 38.1776 93.0214 38.2009C93.0875 38.545 92.9067 38.6228 92.615 38.5839C92.6014 38.5839 92.5858 38.5839 92.5703 38.5878C92.4128 38.6131 92.4886 38.8931 92.2689 38.8581C92.123 38.8348 91.9753 38.7959 91.8275 38.8503C91.6933 38.8989 91.6078 39 91.5397 39.1187C91.423 39.3267 91.25 39.4531 91.0128 39.4959C90.865 39.5231 90.7347 39.6009 90.6064 39.6767C90.5305 39.7234 90.4566 39.7837 90.373 39.805C89.2141 40.1259 88.0766 40.542 86.8303 40.365C86.4239 40.3067 86.0078 40.2445 85.5878 40.2814C85.4283 40.295 85.2591 40.2581 85.1016 40.2212C83.933 39.945 82.9744 39.3267 82.1791 38.4323C80.9211 37.0187 80.8491 35.4028 81.3644 33.6898C81.5141 33.192 81.7319 32.7195 81.9264 32.2392C82.813 30.0498 84.1839 28.1831 85.6811 26.3962C86.3908 25.5484 87.2055 24.7998 88.1564 24.2145C88.4111 24.057 88.6794 23.9287 88.9497 23.8042C89.5991 23.5087 90.2642 23.6137 90.9272 23.7245C91.4794 23.8159 91.9966 24.0201 92.473 24.2981C93.0486 24.6345 93.4297 25.0934 93.4355 25.8401C93.4414 26.6762 93.1886 27.4306 92.8833 28.1734C92.1483 29.9642 91.143 31.6014 89.955 33.1259C89.8228 33.297 89.7022 33.4992 89.43 33.4973C89.3055 33.4973 89.2219 33.6101 89.1558 33.7092C88.2478 35.0742 86.9878 36.0776 85.7219 37.0751C85.6169 37.1587 85.4905 37.2228 85.4536 37.3628C85.3291 37.8256 85.4594 38.1562 85.9533 38.2028C86.4628 38.2514 86.9547 38.1834 87.4564 38.0628C88.7591 37.7498 89.9861 37.2637 91.1275 36.5656C91.8547 36.1203 92.5294 35.6051 93.1691 35.0412C93.2586 34.9614 93.3442 34.8778 93.4375 34.8039C93.5386 34.7262 93.6417 34.5745 93.7778 34.6639C93.9003 34.7456 93.7816 34.8798 93.7603 34.9926C93.7583 35.0081 93.7505 35.0198 93.7467 35.0353C93.7253 35.1345 93.6494 35.2512 93.7544 35.3251C93.8769 35.4106 93.978 35.2978 94.0675 35.2259C94.1958 35.1248 94.3144 35.0101 94.4408 34.9051C94.5303 34.8312 94.608 34.7281 94.748 34.7592C94.8433 34.8526 94.7714 34.9595 94.7753 35.0587C94.7792 35.1209 94.7889 35.1792 94.855 35.2006C94.9211 35.2201 94.9697 35.1812 95.0105 35.1364C95.1058 35.0353 95.1661 34.9128 95.1875 34.7806C95.2419 34.4423 95.3197 34.1098 95.3644 33.7695C95.4636 33.017 95.5394 32.2606 95.7222 31.5198C95.8175 31.1309 95.8583 30.7303 95.9147 30.3337C96.0994 29.0037 96.4164 27.6989 96.6672 26.3826C96.8461 25.4473 97.0172 24.5101 97.1883 23.5728C97.2292 23.3473 97.2972 23.1392 97.4761 22.9837C97.5344 22.9331 97.6044 22.8981 97.6803 22.9214C97.7833 22.9526 97.8047 23.0459 97.8008 23.1373C97.7969 23.2851 97.7814 23.4348 97.7794 23.5826C97.7794 23.6565 97.793 23.7401 97.8825 23.7595C97.9661 23.777 98.0225 23.7187 98.0614 23.6545C98.1469 23.5145 98.2228 23.3687 98.3142 23.2326C98.3997 23.1023 98.5105 23.0109 98.6019 23.2209C98.6778 23.3998 98.8139 23.4134 98.9675 23.3978C99.1989 23.3784 99.3292 23.4931 99.4108 23.6934C99.4614 23.8178 99.5139 23.9423 99.5819 24.057C99.6636 24.197 99.6947 24.3389 99.5994 24.477C99.4925 24.6326 99.5158 24.8231 99.4439 24.9864C99.3797 25.1284 99.4167 25.2159 99.5819 25.2334C99.7492 25.2509 99.7628 25.3792 99.7433 25.4978C99.6169 26.2951 99.6578 27.1039 99.5528 27.9051C99.4828 28.4378 99.3486 28.957 99.2883 29.4878C99.2825 29.5326 99.2689 29.5753 99.2611 29.6201C99.2417 29.7309 99.2475 29.8378 99.3661 29.8845C99.4672 29.9234 99.5314 29.8476 99.5858 29.7737C99.7744 29.5228 99.9767 29.2817 100.146 29.0212C100.927 27.8098 101.853 26.7228 102.967 25.8089C103.568 25.317 104.214 24.8834 104.988 24.6928C105.345 24.6053 105.693 24.6189 106.041 24.7453C106.251 24.8212 106.467 24.8814 106.683 24.9417C107.354 25.1342 107.945 25.4687 108.449 25.9489C108.701 26.1901 108.824 26.5206 109.022 26.7987C109.188 27.0301 109.271 27.0514 109.479 26.8764C109.559 26.8103 109.621 26.7248 109.691 26.647C110.309 25.9548 110.982 25.3228 111.746 24.792C112.227 24.4595 112.742 24.1931 113.3 24.0084C113.782 23.849 114.259 23.8023 114.739 24.0239C114.871 24.0862 115.023 24.1114 115.169 24.1445C115.534 24.2242 115.898 24.3059 116.184 24.5781C116.236 24.6267 116.306 24.6656 116.376 24.6889C116.849 24.8523 117.166 25.2003 117.481 25.5678C117.904 26.0617 118.029 26.6392 118.066 27.2634C118.101 27.8195 117.982 28.3601 117.953 28.9045C117.924 29.4801 117.819 30.0284 117.661 30.5709C117.337 31.6831 117.171 32.8303 116.86 33.9445C116.567 34.9964 116.444 36.0795 116.256 37.1509C116.213 37.392 116.164 37.6428 116.224 37.8762L116.219 37.8626ZM84.2208 32.3909C84.1644 32.4103 84.0808 32.4103 84.0594 32.4492C83.8125 32.8653 83.5714 33.2853 83.583 33.8842C83.8864 33.3612 84.005 32.8537 84.213 32.3812C84.25 32.1906 84.4289 32.0467 84.4153 31.7998C84.2714 31.9826 84.2072 32.1789 84.2208 32.3928V32.3909ZM92.8075 27.6348C92.6675 27.662 92.6403 27.7767 92.5917 27.8895C92.055 29.1534 91.425 30.3687 90.6666 31.5159C90.4119 31.9009 90.1786 32.3014 89.883 32.7778C90.0133 32.6981 90.058 32.6826 90.0853 32.6514C90.1533 32.5737 90.2175 32.4901 90.2797 32.4084C91.1625 31.2728 91.8255 30.0051 92.4575 28.7217C92.6267 28.3776 92.7939 28.0237 92.7978 27.6231C92.8464 27.5084 93.0214 27.4189 92.8639 27.2401C92.8328 27.2964 92.7978 27.3314 92.7958 27.3703C92.7919 27.4578 92.8017 27.5473 92.8075 27.6348ZM103.097 30.0439C102.948 30.0887 102.829 30.1801 102.749 30.3084C102.337 30.9773 101.884 31.6267 101.561 32.3442C101.336 32.8478 101.06 33.3262 100.784 33.7948C100.436 34.3898 100.191 35.0353 99.8172 35.6226C99.6383 35.9026 99.5119 36.2234 99.2844 36.4839C99.2455 36.5287 99.2008 36.5734 99.1775 36.6259C99.1464 36.6998 99.1658 36.7756 99.2261 36.8281C99.2903 36.8845 99.3719 36.8806 99.4264 36.8203C99.5255 36.7095 99.615 36.5928 99.7025 36.4703C100.177 35.7995 100.48 35.0353 100.857 34.3139C101.27 33.5264 101.556 32.667 102.135 31.9689C102.189 31.9028 102.23 31.8134 102.244 31.7278C102.306 31.2981 102.528 30.9462 102.792 30.6234C102.938 30.4445 103.041 30.2539 103.086 30.0303C103.399 29.8301 103.599 29.552 103.716 29.1728C103.387 29.1806 103.403 29.4995 103.218 29.6103C103.057 29.7076 103.051 29.8728 103.097 30.042V30.0439ZM85.0647 35.0412C85.3661 34.7826 85.6889 34.5473 85.963 34.2634C87.3378 32.8362 88.4189 31.2028 89.36 29.4664C89.7566 28.7334 90.1222 27.9828 90.3769 27.1856C90.4391 26.9912 90.5714 26.7442 90.373 26.6062C90.1416 26.4467 89.9608 26.6898 89.8072 26.8337C89.4047 27.2109 89.0119 27.5959 88.6678 28.0295C87.6566 29.3051 86.7758 30.6642 86.0136 32.1012C85.5878 32.9062 85.2358 33.7423 85.0394 34.6367C85.0122 34.7592 84.9266 34.8856 85.0647 35.0412V35.0412ZM82.1364 34.242C82.3775 34.0767 82.4378 33.8784 82.5175 33.6898C82.8053 33.0034 83.1066 32.3209 83.4683 31.6695C84.5416 29.7387 85.7453 27.8973 87.1958 26.2231C87.3028 26.0987 87.398 25.9645 87.4933 25.8323C87.5283 25.7837 87.5497 25.7156 87.4816 25.6767C87.4505 25.6592 87.3903 25.6592 87.3572 25.6767C87.293 25.7117 87.2328 25.7603 87.1803 25.8128C86.8108 26.1803 86.42 26.5303 86.0797 26.9231C84.8294 28.3698 83.7619 29.9428 82.8869 31.6462C82.6419 32.1245 82.43 32.6184 82.2764 33.1298C82.1753 33.4642 82.0508 33.8064 82.1344 34.2401L82.1364 34.242ZM86.2041 34.7845C86.2275 34.8001 86.2489 34.8156 86.2722 34.8331C86.3811 34.7339 86.488 34.6328 86.5969 34.5337C87.8939 33.3437 88.9011 31.9281 89.7955 30.4251C90.3905 29.4237 90.9078 28.3873 91.2616 27.2731C91.353 26.9814 91.3705 26.6898 91.3492 26.3923C91.3453 26.3456 91.3219 26.2989 91.2733 26.297C91.2344 26.297 91.1858 26.3145 91.1586 26.3417C91.0808 26.4195 91.075 26.5284 91.0419 26.6276C90.8611 27.1623 90.6822 27.697 90.4547 28.2162C89.5214 30.3473 88.2555 32.2664 86.7914 34.0631C86.595 34.3023 86.4005 34.5414 86.2061 34.7826L86.2041 34.7845ZM103.374 26.6489C103.35 26.6178 103.329 26.5867 103.306 26.5537C103.094 26.7053 102.868 26.8395 102.672 27.0087C101.857 27.7164 101.219 28.5739 100.628 29.4684C99.9669 30.4717 99.3992 31.5256 98.8761 32.6106C98.705 32.9645 98.7925 33.2678 98.7886 33.6198C99.2533 32.8187 99.6986 32.0137 100.14 31.2087C100.591 30.3881 101.046 29.5676 101.602 28.8112C102.154 28.0606 102.687 27.2926 103.372 26.6489H103.374ZM84.9014 33.7656C85.8075 31.687 86.9741 29.7717 88.2594 27.9031C88.1428 27.8837 88.1136 27.942 88.0786 27.9848C86.9644 29.3517 86.0564 30.8528 85.2611 32.422C85.0939 32.7526 84.9403 33.0948 84.8469 33.4564C84.8236 33.5498 84.7594 33.6509 84.9014 33.7656V33.7656ZM111.554 26.0792C111.157 26.2153 110.142 27.1526 109.709 27.8137C109.545 28.0626 109.331 28.3056 109.361 28.6595C109.771 28.4806 111.363 26.5906 111.554 26.0792V26.0792ZM111.978 29.0542C111.772 29.0309 111.678 29.1359 111.593 29.2623C110.912 30.2695 110.232 31.2787 109.545 32.282C109.444 32.4298 109.399 32.5834 109.45 32.7701C110.364 31.5781 111.081 30.2598 111.976 29.0542H111.978ZM91.4367 28.4981C91.8489 28.0742 92.1872 27.0592 92.1153 26.5828C91.8761 27.2576 91.6564 27.8778 91.4367 28.4981ZM96.358 32.8148C96.043 33.0792 95.9614 33.2523 96.0333 33.4914C96.0605 33.5809 96.1072 33.6762 96.2044 33.6762C96.3347 33.6762 96.3172 33.5634 96.2997 33.4778C96.2764 33.3495 96.3269 33.2464 96.3833 33.1395C96.4319 33.0462 96.4592 32.9431 96.358 32.8167V32.8148ZM97.3614 26.7364C97.338 26.7228 97.3167 26.7092 97.2933 26.6956C97.2019 26.8395 97.0969 26.9756 97.025 27.1292C96.9667 27.2517 97.0289 27.3742 97.1572 27.4073C97.2953 27.4403 97.3244 27.3198 97.3342 27.2148C97.3478 27.0553 97.3536 26.8959 97.3614 26.7384V26.7364ZM114.517 30.8937C114.408 31.0609 114.264 31.2009 114.294 31.4245C114.296 31.442 114.348 31.4751 114.358 31.4692C114.554 31.3487 114.577 31.1523 114.577 30.9481C114.577 30.9384 114.558 30.9287 114.519 30.8937H114.517ZM96.6205 30.5864C96.498 30.8314 96.5078 30.9909 96.5447 31.1562C96.6497 31.0162 96.7158 30.8684 96.6205 30.5864ZM91.1391 29.2078C90.9816 29.3576 90.8903 29.4626 90.8689 29.6959C91.0439 29.5442 91.1139 29.4276 91.1391 29.2078ZM97.2 28.1987C97.1922 28.1462 97.163 28.1034 97.1125 28.1228C97.0172 28.1559 96.9861 28.2356 96.9939 28.3309C96.9978 28.3795 97.0289 28.4223 97.0794 28.4067C97.1805 28.3756 97.1864 28.2823 97.198 28.1987H97.2ZM98.3861 27.6134C98.3783 27.5531 98.3492 27.5045 98.2889 27.4889C98.2422 27.4773 98.2053 27.5064 98.2014 27.5531C98.1936 27.6328 98.2267 27.6912 98.3122 27.6951C98.3589 27.6951 98.3842 27.6601 98.3861 27.6134V27.6134ZM113.024 37.0478C113.022 36.9876 113.006 36.9312 112.938 36.9253C112.866 36.9176 112.841 36.9739 112.837 37.0342C112.833 37.1062 112.841 37.1859 112.942 37.1762C113.006 37.1703 113.02 37.1062 113.024 37.0478V37.0478ZM99.965 33.4059C100.037 33.3728 100.078 33.3145 100.051 33.2328C100.035 33.1881 99.9903 33.1726 99.9455 33.1939C99.8872 33.2212 99.8658 33.2756 99.8736 33.3378C99.8794 33.3864 99.9105 33.4117 99.965 33.4059V33.4059ZM85.4341 29.9914C85.5041 29.9973 85.5391 29.9467 85.5664 29.8981C85.5936 29.8495 85.6169 29.7776 85.5353 29.7639C85.4711 29.7542 85.4478 29.8262 85.4225 29.8787C85.405 29.9176 85.3875 29.9584 85.4341 29.9934V29.9914ZM97.3575 33.3573C97.4528 33.3534 97.4839 33.3262 97.4858 33.2776C97.4858 33.2309 97.4586 33.1939 97.4139 33.1862C97.3478 33.1745 97.303 33.2076 97.3128 33.2776C97.3186 33.3145 97.3517 33.3495 97.3555 33.3573H97.3575ZM84.8625 31.0492C84.9189 31.0434 84.9383 31.0045 84.9383 30.9598C84.9383 30.9092 84.9014 30.882 84.8547 30.9014C84.8119 30.9189 84.7905 30.9617 84.8061 31.0064C84.8139 31.0259 84.8469 31.0376 84.8625 31.0492V31.0492ZM113.568 34.3878C113.549 34.4014 113.52 34.4131 113.516 34.4306C113.512 34.4481 113.535 34.4695 113.547 34.4909C113.566 34.4773 113.596 34.4656 113.599 34.4481C113.603 34.4306 113.58 34.4073 113.568 34.3878ZM84.7536 34.0787C84.7594 34.0437 84.7439 34.0223 84.7108 34.0223C84.6778 34.0223 84.6622 34.0476 84.67 34.0826C84.6739 34.0942 84.6894 34.1156 84.6914 34.1156C84.7128 34.1039 84.7341 34.0923 84.7555 34.0787H84.7536ZM99.3117 34.592C99.3292 34.5764 99.3467 34.5628 99.3642 34.5473C99.3486 34.5337 99.333 34.5181 99.3155 34.5045C99.3136 34.5045 99.2903 34.5201 99.2903 34.5278C99.2942 34.5492 99.3039 34.5687 99.3117 34.5901V34.592ZM97.6025 31.7939C97.6161 31.7745 97.6414 31.7531 97.6414 31.7337C97.6414 31.7181 97.6083 31.7045 97.5908 31.6889C97.5772 31.7084 97.5539 31.7298 97.5539 31.7492C97.5539 31.7648 97.585 31.7784 97.6044 31.792L97.6025 31.7939Z" fill="white"/>
<path d="M4.39844 16.6031V8.35003C4.40062 8.29323 4.42247 8.23644 4.46179 8.19275C4.50766 8.15342 4.56446 8.13158 4.62562 8.12939H6.18536C6.24653 8.12939 6.30333 8.15124 6.3492 8.19275C6.38634 8.23644 6.41037 8.29105 6.41255 8.35003V15.0434H9.33761C9.39659 15.0434 9.45339 15.0652 9.4949 15.1067C9.53859 15.1482 9.56261 15.2028 9.5648 15.264V16.6053C9.55824 16.7276 9.45994 16.8237 9.33761 16.8325H4.65621C4.59504 16.8325 4.53606 16.8063 4.49237 16.7626C4.44213 16.7232 4.40936 16.6686 4.39844 16.6053V16.6031Z" fill="#E62452"/>
<path fill-rule="evenodd" clip-rule="evenodd" d="M11.1201 11.6727C11.0764 11.9458 11.0546 12.2232 11.0568 12.5007C11.0568 12.7912 11.0786 13.0817 11.1267 13.3657C11.1726 13.6628 11.2447 13.9555 11.3451 14.2395C11.4434 14.5344 11.5701 14.8184 11.7187 15.0893C11.8825 15.3711 12.0748 15.6311 12.2954 15.8692C12.5248 16.1116 12.7891 16.3214 13.0753 16.4939C13.3964 16.6796 13.7437 16.8194 14.1042 16.9068C14.9452 17.1143 15.8234 17.1143 16.6622 16.9068C17.0205 16.8172 17.3656 16.6774 17.6846 16.4939C17.9729 16.3235 18.2351 16.1138 18.4645 15.8692C18.6895 15.6354 18.8839 15.3733 19.0412 15.0893C19.1919 14.8184 19.3164 14.5344 19.4169 14.2395C19.513 13.9534 19.5851 13.6628 19.6353 13.3657C19.6747 13.0861 19.6965 12.8043 19.6987 12.5225C19.6987 12.1293 19.6572 11.7361 19.5742 11.3516C19.4802 10.9344 19.3273 10.5324 19.122 10.1589C18.921 9.76128 18.6567 9.39866 18.3421 9.0819C17.9904 8.73893 17.571 8.47242 17.1101 8.30203C16.5617 8.09887 15.9785 7.99839 15.393 8.00494C14.9627 8.00494 14.5323 8.05518 14.1129 8.16004C13.7525 8.24742 13.4051 8.38723 13.084 8.57291C12.5182 8.91369 12.0464 9.3921 11.71 9.96007C11.5614 10.231 11.4347 10.5171 11.3364 10.8098C11.2381 11.0873 11.1638 11.3756 11.118 11.6684L11.1201 11.6727ZM13.0862 12.9201C13.0753 12.7803 13.0753 12.6383 13.0862 12.4985C13.0818 12.3193 13.0927 12.138 13.1168 11.9611C13.1561 11.7317 13.2195 11.5067 13.3046 11.2904C13.3986 11.0436 13.5297 10.812 13.6957 10.6045C13.8748 10.3817 14.1042 10.2047 14.3663 10.089C14.6831 9.93604 15.0304 9.86177 15.3799 9.87051C15.7273 9.86177 16.0724 9.93604 16.387 10.089C16.6469 10.2069 16.8785 10.3817 17.0576 10.6045C17.2171 10.8142 17.346 11.0458 17.4399 11.2904C17.5207 11.5089 17.5841 11.7339 17.6278 11.9611C17.6562 12.1337 17.6693 12.3084 17.6671 12.4832C17.6671 12.5181 17.6671 12.5553 17.6715 12.5924C17.6758 12.6689 17.678 12.7497 17.6671 12.8349C17.6518 12.9594 17.6212 13.1167 17.5819 13.2871C17.5448 13.4618 17.4902 13.6322 17.4181 13.7939C17.3482 13.9686 17.2564 14.1347 17.145 14.2854C17.0249 14.4536 16.8785 14.6043 16.7147 14.731C16.5421 14.8643 16.3455 14.9626 16.138 15.0281C15.8867 15.109 15.6224 15.1461 15.3581 15.1374C15.061 15.1417 14.7639 15.0915 14.4843 14.9888C14.2484 14.908 14.0343 14.7747 13.8595 14.5978C13.7022 14.4383 13.5624 14.2592 13.4466 14.0669C13.333 13.8813 13.25 13.6781 13.1976 13.4662C13.1474 13.2871 13.1124 13.1058 13.0884 12.9201H13.0862Z" fill="#E62452"/>
<path d="M21.7479 16.6031V8.35003C21.7479 8.29105 21.7741 8.23425 21.8178 8.19275C21.8593 8.15124 21.9161 8.12939 21.9729 8.12939H23.5326C23.5894 8.13158 23.6462 8.15342 23.6877 8.19275C23.7314 8.23425 23.7576 8.28886 23.7576 8.35003V15.0434H26.6827C26.7417 15.0412 26.7985 15.063 26.8378 15.1067C26.8815 15.146 26.9077 15.2028 26.9077 15.264V16.6053C26.9077 16.6643 26.8815 16.7211 26.8378 16.7626C26.7985 16.8063 26.7417 16.8325 26.6827 16.8325H22.0013C21.9423 16.8347 21.8833 16.8084 21.844 16.7626C21.7894 16.7276 21.7523 16.6708 21.7435 16.6053L21.7479 16.6031Z" fill="#E62452"/>
<path d="M29.138 16.6031V8.35003C29.138 8.29105 29.1643 8.23425 29.208 8.19275C29.2495 8.15124 29.3063 8.12939 29.363 8.12939H30.9228C30.9796 8.12939 31.0364 8.15342 31.0779 8.19275C31.1216 8.23425 31.1478 8.28886 31.1478 8.35003V15.0434H34.0729C34.1318 15.0412 34.1886 15.063 34.2301 15.1067C34.2738 15.146 34.2979 15.2028 34.3 15.264V16.6053C34.3 16.6643 34.2738 16.7211 34.2301 16.7626C34.1908 16.8063 34.134 16.8325 34.0729 16.8325H29.3914C29.3325 16.8347 29.2735 16.8084 29.2363 16.7626C29.1817 16.7276 29.1424 16.6708 29.1359 16.6053L29.138 16.6031Z" fill="#E62452"/>
<path d="M34.9073 8.31944C34.8745 8.28449 34.8745 8.22988 34.9073 8.19492C34.9291 8.1556 34.9706 8.13157 35.0165 8.13157H36.7794C36.917 8.13157 37.0415 8.20366 37.1158 8.31944L38.7607 11.0654L40.4079 8.31944C40.4734 8.19492 40.6045 8.12283 40.7443 8.13157H42.5159C42.5618 8.13157 42.6055 8.1556 42.6317 8.19492C42.6382 8.21895 42.6382 8.24298 42.6317 8.26483C42.6382 8.2823 42.6382 8.30196 42.6317 8.31944L39.7612 13.0008V16.6053C39.7612 16.6643 39.735 16.7211 39.6913 16.7626C39.652 16.8062 39.5952 16.8325 39.5362 16.8325H37.9765C37.9153 16.8346 37.8585 16.8084 37.8214 16.7626C37.7777 16.7211 37.7537 16.6664 37.7515 16.6053V13.0096L34.9116 8.32163L34.9073 8.31944Z" fill="#E62452"/>
<path fill-rule="evenodd" clip-rule="evenodd" d="M44.7792 8.35002V16.6031C44.7748 16.6599 44.7901 16.7145 44.825 16.7604C44.8644 16.8062 44.9212 16.8325 44.9801 16.8303H46.5399C46.601 16.8303 46.6557 16.8041 46.6972 16.7604C46.7409 16.7189 46.7649 16.6642 46.7671 16.6031V13.9576H48.2722C48.7703 13.9576 49.2596 13.8331 49.6987 13.5994C50.1618 13.3569 50.555 12.9986 50.839 12.5617C51.1361 12.1139 51.289 11.5853 51.2824 11.0479C51.2824 10.7857 51.2541 10.5236 51.1973 10.268C51.1295 9.99277 51.0181 9.73062 50.8696 9.48814C50.7167 9.226 50.5179 8.99444 50.2841 8.80221C50.0154 8.58594 49.7096 8.4221 49.3797 8.31943C48.9734 8.18836 48.5496 8.12501 48.1237 8.13156H45.0042C44.9452 8.13156 44.8906 8.15341 44.8491 8.19492C44.8054 8.23424 44.7792 8.29103 44.7792 8.3522V8.35002ZM48.2438 12.0309H46.7933L46.7627 9.95563H48.1761C48.364 9.94908 48.5496 9.98403 48.7222 10.0561C48.862 10.1151 48.98 10.2112 49.0652 10.3357C49.1351 10.4362 49.1897 10.5476 49.229 10.6634C49.2596 10.7639 49.2749 10.8688 49.2771 10.9758C49.288 11.0523 49.288 11.1331 49.2771 11.2095C49.2574 11.3013 49.2268 11.3909 49.1831 11.476C49.1307 11.5722 49.0695 11.6617 48.9953 11.7404C48.9057 11.8256 48.7987 11.8911 48.6829 11.9348C48.5453 11.9916 48.3967 12.0244 48.246 12.0287L48.2438 12.0309Z" fill="#E62452"/>
<path fill-rule="evenodd" clip-rule="evenodd" d="M52.8442 11.688C52.8049 11.9611 52.7831 12.2385 52.7809 12.5138C52.7765 12.7977 52.7918 13.0817 52.8268 13.3635C52.877 13.6606 52.9491 13.9533 53.0452 14.2373C53.1435 14.5322 53.2724 14.8184 53.4275 15.0871C53.5848 15.3711 53.7792 15.6332 54.0042 15.867C54.2336 16.1095 54.4957 16.3192 54.7841 16.4917C55.1052 16.6774 55.4525 16.8172 55.813 16.9046C56.2324 17.0095 56.6606 17.0619 57.0931 17.0597C57.5234 17.0619 57.9538 17.0095 58.3732 16.9046C58.7337 16.8172 59.081 16.6774 59.4043 16.4917C59.6905 16.3192 59.9526 16.1095 60.1842 15.867C60.4092 15.6332 60.6036 15.3711 60.7609 15.0871C60.9116 14.8162 61.0361 14.5301 61.1344 14.2373C61.2327 13.9533 61.307 13.6606 61.3529 13.3635C61.3966 13.0839 61.4184 12.8021 61.4162 12.5203C61.4162 12.1271 61.3747 11.7339 61.2917 11.3494C61.1956 10.9344 61.0471 10.5324 60.8483 10.1567C60.6407 9.76127 60.3786 9.39864 60.0684 9.0797C59.7123 8.73674 59.2907 8.47241 58.8276 8.29984C58.2793 8.09668 57.696 7.99619 57.1106 8.00274C56.6802 8.00274 56.2499 8.05299 55.8305 8.16003C55.47 8.24741 55.1227 8.38722 54.8016 8.5729C54.5176 8.74766 54.2554 8.95737 54.0217 9.19767C53.7967 9.43141 53.6023 9.69355 53.445 9.97754C53.2899 10.2484 53.161 10.5324 53.0627 10.8273C52.9666 11.1069 52.8945 11.3931 52.8442 11.6858V11.688ZM54.8168 12.9354C54.8059 12.7956 54.8059 12.6536 54.8168 12.5138C54.8037 12.3281 54.8059 12.1446 54.8256 11.9589C54.8671 11.7295 54.9326 11.5045 55.02 11.2882C55.1118 11.0414 55.2406 10.8098 55.4023 10.6023C55.5836 10.3817 55.813 10.2047 56.0729 10.0868C56.3897 9.93603 56.737 9.85957 57.0865 9.86831C57.4339 9.85957 57.779 9.93385 58.0936 10.0868C58.3557 10.2025 58.5851 10.3795 58.7642 10.6023C58.9259 10.8098 59.0548 11.0414 59.1465 11.2882C59.2361 11.5045 59.2973 11.7295 59.3344 11.9589C59.3628 12.1424 59.3759 12.3281 59.3737 12.5138C59.3803 12.6295 59.3803 12.7475 59.3737 12.8655C59.3584 12.99 59.3344 13.1451 59.2951 13.3177C59.2514 13.4902 59.1968 13.6584 59.1312 13.8245C59.0548 13.9992 58.9609 14.1631 58.8516 14.316C58.7359 14.4798 58.596 14.624 58.4388 14.7441C58.2684 14.8752 58.0761 14.9757 57.8686 15.0412C57.6174 15.1199 57.3531 15.157 57.0887 15.1505C56.7938 15.157 56.4989 15.1068 56.2237 15.0019C55.9856 14.9211 55.7693 14.7878 55.5923 14.6109C55.4351 14.4514 55.2953 14.2723 55.1795 14.08C55.0702 13.8922 54.985 13.689 54.9304 13.4793C54.9173 13.4181 54.902 13.3592 54.8867 13.3024C54.8518 13.1669 54.8212 13.0446 54.8212 12.9332L54.8168 12.9354Z" fill="#E62452"/>
<path fill-rule="evenodd" clip-rule="evenodd" d="M63.4741 8.34781V16.6009C63.4676 16.6555 63.4807 16.7123 63.5134 16.756C63.5528 16.7997 63.6095 16.8259 63.6685 16.8259H65.2283C65.2873 16.8259 65.3462 16.8018 65.3834 16.756C65.4271 16.7167 65.4533 16.6599 65.4533 16.6009V13.9554H66.9584C67.4586 13.9533 67.9502 13.8287 68.3936 13.5972C68.8524 13.3525 69.2412 12.9964 69.5252 12.5595C69.8223 12.1117 69.9818 11.5831 69.9774 11.0457C69.9774 10.7835 69.9468 10.5214 69.8835 10.2658C69.8136 9.99056 69.7043 9.72842 69.5558 9.48594C69.4029 9.2238 69.2041 8.99224 68.9703 8.80001C68.7038 8.58155 68.3958 8.41772 68.0659 8.31723C67.6618 8.18834 67.2402 8.12499 66.8164 8.12936H63.6969C63.6401 8.12936 63.5833 8.15339 63.5418 8.19271C63.4981 8.23422 63.4719 8.28883 63.4719 8.34781H63.4741ZM66.9366 12.0309H65.486L65.462 9.95561H66.8819C67.0676 9.94906 67.2511 9.98401 67.4215 10.0561C67.5613 10.1151 67.6793 10.2112 67.7645 10.3379C67.9021 10.5236 67.9742 10.7464 67.9742 10.978C67.9807 11.0566 67.9807 11.1352 67.9742 11.2117C67.948 11.3013 67.9152 11.3908 67.8737 11.476C67.8213 11.5721 67.7601 11.6617 67.6858 11.7425C67.5963 11.8277 67.4892 11.8933 67.3735 11.937C67.2336 11.9938 67.0873 12.0265 66.9366 12.0309Z" fill="#E62452"/>
</svg>
