<svg width="1440" height="960" viewBox="0 0 1440 960" fill="none" xmlns="http://www.w3.org/2000/svg">
<path d="M0.500028 0.000854492L0.5 960.001M80.5001 0.000854492L80.5 960.001M160.5 0.000854492L160.5 960.001M240.5 0.000854492L240.5 960.001M320.5 0.000854492L320.5 960.001M400.5 0.000854492L400.5 960.001M480.5 0.000854492L480.5 960.001M560.5 0.000854492L560.5 960.001M640.5 0.000854492L640.5 960.001M720.501 0.000854492L720.5 960.001M800.501 0.000854492L800.501 960.001M880.501 0.000854492L880.501 960.001M960.501 0.000854492L960.501 960.001M1040.5 0.000854492V960.001M1120.5 0.000854492V960.001M1200.5 0.000854492V960.001M1280.5 0.000854492V960.001M1360.5 0.000854492V960.001M1440.5 0.000854492V960.001M0 959.501L1440 959.501M0 879.501L1440 879.501M0 799.501L1440 799.501M0 719.501L1440 719.501M0 639.5L1440 639.501M0 559.5L1440 559.5M0 479.5L1440 479.5M0 399.5L1440 399.5M0 319.5L1440 319.5M0 239.5L1440 239.5M0 159.5L1440 159.5M0 79.5001L1440 79.5001M0 -0.5L1440 -0.499934" stroke="url(#paint0_linear_389_137)"/>
<defs>
<linearGradient id="paint0_linear_389_137" x1="720.25" y1="-0.5" x2="720.25" y2="877" gradientUnits="userSpaceOnUse">
<stop stop-color="white" stop-opacity="0.06"/>
<stop offset="1" stop-color="white" stop-opacity="0"/>
</linearGradient>
</defs>
</svg>
